<?xml version="1.0" encoding="utf-8"?>
<!-- Generator: Adobe Illustrator 27.7.0, SVG Export Plug-In . SVG Version: 6.00 Build 0)  -->
<svg version="1.1" id="svg5" xmlns:svg="http://www.w3.org/2000/svg"
	 xmlns="http://www.w3.org/2000/svg" xmlns:xlink="http://www.w3.org/1999/xlink" x="0px" y="0px" viewBox="0 0 1325.6 1221.2"
	 style="enable-background:new 0 0 1325.6 1221.2;" xml:space="preserve">
<g id="layer1" transform="translate(52.390088,-25.058597)">
	<g id="path1009">
		<path d="M126.5,167.3L512.9,684l-388.8,420h87.5L552,736.2l275,367.8h297.8L716.7,558.3l361.9-391h-87.5L677.6,506L424.3,167.3
			H126.5z M255.2,231.8H392l604.1,807.8H859.3L255.2,231.8z"/>
		<path d="M1139.8,1111.5H823.3L551.4,747.9l-336.5,363.6H106.9l396.2-428.1L111.5,159.8h316.5l250.2,334.5l309.6-334.5h107.9
			l-369.3,399L1139.8,1111.5z M830.8,1096.5h279.1L707,557.8l354.5-383h-67.1L677,517.7L420.6,174.8H141.5l381.2,509.7l-381.4,412
			h67.1l344.3-372L830.8,1096.5z M1011.1,1047H855.6l-2.2-3L240.2,224.3h155.5l2.2,3L1011.1,1047z M863.1,1032h118.1L388.3,239.3
			H270.2L863.1,1032z"/>
	</g>
</g>
</svg>
