<?xml version="1.0" encoding="UTF-8"?>
<svg id="shapes" xmlns="http://www.w3.org/2000/svg" viewBox="0 0 447.13 440.25">
  <defs>
    <style>
      .cls-1 {
        fill: none;
        stroke-width: 3px;
      }

      .cls-1, .cls-2, .cls-3, .cls-4 {
        stroke: #231f20;
        stroke-miterlimit: 10;
      }

      .cls-5 {
        fill: #5c5c5c;
      }

      .cls-5, .cls-6, .cls-7, .cls-8, .cls-9, .cls-10, .cls-11, .cls-12, .cls-13, .cls-14, .cls-15, .cls-16, .cls-17, .cls-18, .cls-19, .cls-20, .cls-21, .cls-22, .cls-23, .cls-24, .cls-25, .cls-26, .cls-27, .cls-28, .cls-29, .cls-30, .cls-31, .cls-32, .cls-33, .cls-34, .cls-35, .cls-36, .cls-37 {
        stroke-width: 0px;
      }

      .cls-6 {
        fill: #353535;
      }

      .cls-7 {
        fill: #4f4f4f;
      }

      .cls-8 {
        fill: #414141;
      }

      .cls-2 {
        fill: #606161;
      }

      .cls-2, .cls-4 {
        stroke-width: .5px;
      }

      .cls-9 {
        fill: #cccccb;
      }

      .cls-10 {
        fill: #8c8c8c;
      }

      .cls-11 {
        fill: #333;
      }

      .cls-12 {
        fill: #4c4c4d;
      }

      .cls-13 {
        fill: #5e5f5e;
      }

      .cls-14 {
        fill: #3e3e3e;
      }

      .cls-15 {
        fill: #cfcfce;
      }

      .cls-16 {
        fill: #d6d6d6;
      }

      .cls-17 {
        fill: #757576;
      }

      .cls-18 {
        fill: #282827;
      }

      .cls-19 {
        fill: #aeadae;
      }

      .cls-20 {
        fill: #666766;
      }

      .cls-21, .cls-3 {
        fill: #000;
      }

      .cls-22, .cls-38 {
        fill: #231f20;
      }

      .cls-23 {
        fill: #545554;
      }

      .cls-24 {
        fill: #282828;
      }

      .cls-25 {
        fill: #e5e5e5;
      }

      .cls-38 {
        font-family: OpenSans-SemiBold, 'Open Sans';
        font-size: 24px;
        font-weight: 600;
      }

      .cls-26 {
        fill: #939393;
      }

      .cls-27 {
        fill: #444545;
      }

      .cls-28 {
        fill: #5e5f5f;
      }

      .cls-29 {
        fill: #b7b7b7;
      }

      .cls-30 {
        fill: #b5b5b6;
      }

      .cls-31 {
        fill: #636464;
      }

      .cls-3 {
        stroke-width: .68px;
      }

      .cls-32 {
        fill: #9b9a9a;
      }

      .cls-33 {
        fill: #a3a3a3;
      }

      .cls-34 {
        fill: #686868;
      }

      .cls-35 {
        fill: #d8d8d8;
      }

      .cls-36 {
        fill: #fff;
      }

      .cls-37 {
        fill: #a09f9f;
      }

      .cls-4 {
        fill: #6d6d6d;
      }
    </style>
  </defs>
  <g>
    <path class="cls-12" d="M8.57,374.53v15.13s-.91,3.83,5.65,5.45c6.56,1.61,118.5,36.81,118.5,36.81,0,0,7.06,2.62,17.04,0,9.98-2.62,130.5-42.05,130.5-42.05,0,0,5.14-1.92,5.14-5.95v-17.95l-276.83,8.57Z"/>
    <path class="cls-21" d="M140.93,433.19c-5.04,0-8.21-1.15-8.26-1.17-1.11-.35-112.01-35.21-118.48-36.81-6.6-1.62-5.75-5.56-5.74-5.6v-15.1c0-.07.05-.12.12-.12l276.83-8.57s.07.01.09.04c.02.02.04.06.04.09v17.95c0,4.07-5.17,6.05-5.22,6.07-1.21.4-120.64,39.47-130.51,42.06-3.32.87-6.32,1.16-8.86,1.16ZM8.69,374.65v15.01c-.04.18-.79,3.76,5.55,5.32,6.48,1.6,117.39,36.46,118.51,36.81.08.03,7.15,2.58,16.97,0,9.87-2.59,129.29-41.66,130.49-42.05.05-.02,5.06-1.93,5.06-5.83v-17.82l-276.58,8.56Z"/>
  </g>
  <g>
    <path class="cls-37" d="M92.48,321.94l-79.68,18.1s-7.46.61-7.56,7.16,0,27.63,0,27.63c0,0-.91,3.63,4.54,4.84s120.21,36.91,120.21,36.91c0,0,8.47,3.63,27.43-2.02,18.96-5.65,125.66-38.93,125.66-38.93,0,0,5.24-1.11,5.24-10.19v-21.68s.4-6.15-5.55-9.88c-5.95-3.73-26.93-19.96-26.93-19.96l.1-5.76-5.17-1.94-17.83-7.45-140.48,23.16Z"/>
    <path class="cls-21" d="M138.36,418c-5.59,0-8.28-1.1-8.47-1.19-1.12-.35-114.79-35.7-120.17-36.9-2.05-.46-3.48-1.3-4.22-2.52-.82-1.32-.52-2.58-.5-2.63,0-.15-.11-21.09,0-27.58.1-6.71,7.72-7.4,7.79-7.41l79.64-18.1h.01s140.48-23.16,140.48-23.16c.05,0,.09,0,.14.02l17.83,7.45,5.16,1.94c.1.04.16.13.16.24l-.1,5.63c1.58,1.22,21.15,16.31,26.81,19.87,6.01,3.77,5.67,10.05,5.66,10.11v21.67c0,9.17-5.22,10.38-5.44,10.43-1.04.33-106.89,33.34-125.64,38.92-8.36,2.49-14.67,3.2-19.13,3.2ZM92.52,322.18l-79.67,18.1c-.33.03-7.27.67-7.37,6.92-.1,6.48,0,27.42,0,27.63,0,.07-.27,1.18.44,2.32.68,1.09,1.99,1.86,3.9,2.28,5.39,1.2,119.08,36.56,120.23,36.92.11.04,8.66,3.53,27.29-2.02,18.74-5.58,124.59-38.59,125.66-38.93.23-.05,5.07-1.2,5.07-9.95v-21.68c0-.08.32-6.07-5.43-9.67-5.89-3.7-26.74-19.81-26.95-19.97-.06-.05-.1-.12-.1-.2l.1-5.58-5-1.88-17.77-7.43-140.4,23.15Z"/>
  </g>
  <g>
    <g>
      <path class="cls-21" d="M147.68,283.67c0,6.11-4.46,11.06-9.97,11.06-2.27,0-4.37-.86-6.04-2.31-2.38-1.99-3.9-5.16-3.9-8.74,0-1.99.47-3.86,1.29-5.44,1.41-2.81,3.9-4.84,6.84-5.42.6-.15,1.2-.21,1.82-.21.69,0,1.35.09,2.01.24l.41.11c.06.02.13.04.19.06,4.24,1.26,7.35,5.57,7.35,10.67Z"/>
      <path class="cls-21" d="M137.72,294.98c-2.28,0-4.42-.82-6.21-2.38-2.53-2.12-3.99-5.38-3.99-8.93,0-1.96.45-3.88,1.31-5.56,1.48-2.94,4.04-4.97,7.01-5.55,1.18-.29,2.51-.3,3.94.02l.62.18c4.43,1.32,7.52,5.8,7.52,10.91,0,6.24-4.58,11.31-10.21,11.31ZM137.72,272.84c-.63,0-1.2.07-1.76.21-2.83.56-5.26,2.49-6.67,5.29-.82,1.6-1.26,3.45-1.26,5.33,0,3.41,1.39,6.52,3.81,8.55,1.69,1.48,3.73,2.26,5.88,2.26,5.36,0,9.71-4.85,9.71-10.81,0-4.88-2.95-9.17-7.17-10.43l-.59-.17c-.67-.15-1.31-.23-1.95-.23Z"/>
    </g>
    <g>
      <path class="cls-17" d="M139.73,272.83c-.66-.15-1.33-.24-2.01-.24-.62,0-1.22.06-1.82.21-2.94.58-5.42,2.61-6.84,5.42-.81,1.59-1.29,3.45-1.29,5.44,0,3.58,1.52,6.75,3.9,8.74-.6.15-1.22.21-1.84.21-5.51,0-9.97-4.95-9.97-11.06s4.46-11.08,9.97-11.08c.71,0,1.39.09,2.06.24l7.84,2.1Z"/>
      <path class="cls-21" d="M129.83,292.88c-5.63,0-10.22-5.07-10.22-11.31s4.58-11.33,10.22-11.33c.69,0,1.4.08,2.11.24l7.85,2.1c.13.04.21.17.18.3-.03.13-.16.21-.3.18-1.35-.31-2.6-.3-3.72-.02-2.83.56-5.26,2.49-6.67,5.29-.82,1.6-1.26,3.45-1.26,5.33,0,3.41,1.39,6.52,3.81,8.55.07.06.1.16.08.25-.02.09-.09.16-.18.19-.59.15-1.23.22-1.9.22ZM129.83,270.74c-5.36,0-9.72,4.86-9.72,10.83s4.36,10.81,9.72,10.81c.45,0,.89-.04,1.3-.11-2.3-2.12-3.61-5.23-3.61-8.6,0-1.96.45-3.88,1.31-5.56,1.48-2.94,4.04-4.97,7.01-5.55.38-.1.78-.16,1.2-.19l-5.22-1.4c-.67-.15-1.34-.23-1.99-.23Z"/>
    </g>
  </g>
  <g>
    <polygon class="cls-29" points="251.28 284.38 250.78 306.23 171.24 325.31 136.95 317.95 136.95 266.6 133.92 238.08 238.23 202.47 251.28 284.38"/>
    <path class="cls-21" d="M171.24,325.56s-.04,0-.05,0l-34.29-7.36c-.12-.02-.2-.13-.2-.24v-51.36l-3.02-28.49c-.01-.12.06-.23.17-.26l104.3-35.61c.07-.02.15-.01.21.02.06.04.11.1.12.17l13.05,81.9s0,.03,0,.04l-.5,21.85c0,.11-.08.21-.19.24l-79.54,19.09s-.04,0-.06,0ZM137.2,317.75l34.04,7.31,79.3-19.03.49-21.64-13-81.59-103.83,35.44,3,28.32v51.18Z"/>
  </g>
  <g>
    <ellipse class="cls-34" cx="125.15" cy="262.51" rx="21.93" ry="4.85"/>
    <path class="cls-21" d="M125.15,267.61c-10.9,0-22.18-1.91-22.18-5.1s11.28-5.1,22.18-5.1,22.19,1.91,22.19,5.1-11.28,5.1-22.19,5.1ZM125.15,257.91c-12.97,0-21.68,2.38-21.68,4.6s8.71,4.6,21.68,4.6,21.69-2.38,21.69-4.6-8.71-4.6-21.69-4.6Z"/>
  </g>
  <g>
    <polygon class="cls-9" points="107.69 160.62 118.39 136.83 92.98 134.2 86.52 148.68 107.69 160.62"/>
    <path class="cls-21" d="M107.69,160.87s-.08-.01-.12-.03l-21.17-11.94c-.11-.06-.16-.2-.11-.32l6.46-14.47c.04-.1.14-.16.25-.15l25.41,2.62c.08,0,.15.05.19.12.04.07.04.15.01.23l-10.7,23.79c-.03.06-.08.11-.15.13-.03,0-.05.01-.08.01ZM86.84,148.57l20.74,11.69,10.44-23.22-24.89-2.57-6.29,14.1Z"/>
  </g>
  <g>
    <polygon class="cls-30" points="176.81 149.05 153.14 134.91 81.38 115.55 81.38 89.98 142.88 93.23 169.77 119.18 211 144.06 209.86 151.32 176.81 149.05"/>
    <path class="cls-21" d="M210.07,151.59l-33.39-2.32-23.64-14.13-71.91-19.4v-26.02h.26s61.59,3.28,61.59,3.28l.07.06,26.9,25.94,41.32,24.94-1.2,7.65ZM176.89,148.81l32.76,2.25,1.07-6.87-41.08-24.8-26.87-25.91-61.14-3.24v25.11l71.64,19.34,23.62,14.11Z"/>
  </g>
  <path class="cls-2" d="M97.78,105.06s50.26.4,54.1,0,2.62,2.03,2.62,2.03l33.48,3.52v-30.36c0-5.45-3.23-5.17-3.23-5.17,0,0-28.44-17.22-35.1-22.41-6.66-5.19-13.11-5.29-13.11-5.29l-38.77-1.15v58.84Z"/>
  <path class="cls-4" d="M101.55,22.35l25.19,42.52s2.14,2.26,1.59,10.28-.36,20-.36,20c0,0-.2,8.34-7.92,8.25-7.73-.09-26.97,5.33-26.97,5.33,0,0-12.36,4.81-18.83-8.28l-13.01-23.5"/>
  <g>
    <path class="cls-32" d="M100.49,36.17s-1.76,9.72-2.82,15.15-1.12,17.96-7.8,22.63c-6.68,4.67-20.78,8.55-25.8,5.68s-4.18-11.75-3.4-13.23,6.32-14.08,8.72-17.65,17.96-18.35,17.96-18.35l13.14,5.78Z"/>
    <path class="cls-21" d="M64.45,80.09c-.18-.08-.34-.16-.5-.25-5.24-3-4.24-12.17-3.5-13.56.2-.39.77-1.61,1.49-3.16,2.05-4.44,5.48-11.87,7.25-14.51,2.38-3.56,17.36-17.79,17.99-18.39l.12-.11,13.48,5.92-.04.19c-.02.1-1.77,9.79-2.82,15.15-.21,1.08-.38,2.42-.58,3.97-.8,6.34-1.89,15.02-7.33,18.81-6.71,4.69-20.19,8.3-25.56,5.94ZM87.39,30.69c-1.46,1.39-15.56,14.85-17.8,18.2-1.75,2.6-5.16,10.01-7.21,14.44-.75,1.62-1.29,2.79-1.5,3.19-.33.63-.77,3.16-.44,5.95.27,2.35,1.15,5.46,3.75,6.95,4.84,2.75,18.71-.91,25.53-5.67,5.25-3.67,6.33-12.22,7.12-18.47.2-1.56.37-2.91.58-4,.97-4.94,2.53-13.55,2.78-14.95l-12.81-5.63Z"/>
  </g>
  <g>
    <ellipse class="cls-32" cx="90.6" cy="29.1" rx="12.96" ry="12.2" transform="translate(11.5 82) rotate(-51.58)"/>
    <path class="cls-21" d="M84.97,41.01c-.91-.4-1.77-.92-2.58-1.56-5.38-4.27-6.07-12.38-1.55-18.09,2.19-2.76,5.27-4.56,8.66-5.05,3.4-.5,6.7.37,9.31,2.44,2.61,2.07,4.2,5.09,4.5,8.51.29,3.41-.76,6.82-2.95,9.58-3.85,4.85-10.25,6.43-15.39,4.17ZM96.01,17.64c-1.98-.87-4.19-1.16-6.44-.83-3.26.48-6.22,2.2-8.34,4.87-4.36,5.49-3.7,13.29,1.47,17.39,5.16,4.1,12.91,2.96,17.27-2.53,2.11-2.66,3.12-5.94,2.84-9.23-.28-3.28-1.81-6.18-4.31-8.16-.77-.61-1.61-1.11-2.49-1.5Z"/>
  </g>
  <g>
    <g>
      <path class="cls-13" d="M83.74,70.3c-7.17,4.43-15,5.04-18.43,1.66h-.03s-8.04-5.89-8.04-5.89l10.2-7.01,11.05-7.57,11.43-7.85,2.94,9.65c2.81,4.53-1.29,12.14-9.14,17.01Z"/>
      <path class="cls-21" d="M67.26,73.4c-.76-.33-1.43-.77-1.99-1.31l-.06-.02-8.18-6,.14-.1,10.2-7.01,22.63-15.52,2.99,9.8c2.82,4.58-1.3,12.28-9.19,17.16h0c-5.94,3.68-12.52,4.77-16.55,2.99ZM65.32,71.82l.09.05c3.42,3.37,11.28,2.65,18.27-1.68h0c7.78-4.82,11.86-12.37,9.1-16.83v-.03s-2.91-9.49-2.91-9.49l-32.4,22.23,7.84,5.75h.01Z"/>
    </g>
    <g>
      <path class="cls-14" d="M79.82,63.23c-8.85,6.5-18.96,7.77-22.57,2.84l-4.34-6.75,4.56-3.35,22.14-16.23,5.36-3.94,4.32,6.74c3.63,4.94-.61,14.22-9.47,20.7Z"/>
      <path class="cls-21" d="M59.99,68.36c-1.18-.52-2.14-1.27-2.84-2.22l-4.4-6.86,4.66-3.42,27.61-20.25,4.39,6.86c1.14,1.55,1.55,3.6,1.19,5.94-.76,4.95-4.86,10.67-10.7,14.93h0c-5.84,4.29-12.53,6.48-17.47,5.72-.89-.14-1.71-.37-2.44-.69ZM53.08,59.35l4.27,6.65c1.09,1.49,2.86,2.46,5.11,2.81,4.88.75,11.5-1.42,17.28-5.67h0c5.78-4.22,9.84-9.88,10.6-14.76.35-2.27-.05-4.26-1.15-5.76l-4.25-6.64-5.25,3.86-26.61,19.51Z"/>
    </g>
    <g>
      <ellipse class="cls-18" cx="68.94" cy="47.56" rx="19.88" ry="11.08" transform="translate(-14.78 50) rotate(-36.27)"/>
      <path class="cls-21" d="M55.65,61.63c-1.17-.51-2.13-1.26-2.84-2.22-1.78-2.43-1.76-5.94.05-9.89,1.8-3.93,5.16-7.83,9.45-10.98s9.03-5.19,13.31-5.72c4.31-.54,7.67.5,9.45,2.92,3.66,4.98-.61,14.35-9.5,20.87l-.07-.1.07.1c-4.3,3.15-9.03,5.19-13.31,5.72-2.6.32-4.85.08-6.61-.7ZM82.14,33.73c-1.73-.76-3.93-1-6.48-.68-4.25.53-8.93,2.55-13.2,5.68-4.26,3.13-7.59,7-9.38,10.89-1.77,3.87-1.79,7.29-.07,9.64s5,3.35,9.22,2.82c4.25-.53,8.93-2.55,13.2-5.68,8.78-6.45,13.02-15.65,9.45-20.52-.68-.93-1.61-1.65-2.74-2.14Z"/>
    </g>
    <g>
      <path class="cls-8" d="M40.04,31.88s13.49,24.98,14.5,25.43,8.77,2.86,18.65-2.82c9.88-5.68,9.51-15.87,9.51-15.87l-4.08-6.32-12.89-19.97"/>
      <path class="cls-21" d="M54.49,57.43c-1.03-.45-13.18-22.92-14.56-25.48l.22-.12c5.4,10,13.7,25.01,14.44,25.38.08.03,8.02,3.23,18.53-2.81,9.42-5.42,9.46-15.08,9.45-15.72l-16.95-26.27.21-.14,16.99,26.32v.03c0,.1.26,10.33-9.57,15.98-10.61,6.1-18.68,2.86-18.76,2.83Z"/>
    </g>
    <g>
      <g>
        <path class="cls-8" d="M59.77,31.85c-7.09,5.4-15.93,5.42-19.73.04-3.8-5.38-1.13-14.12,5.97-19.52,7.09-5.4,15.93-5.42,19.73-.04,3.8,5.38,1.13,14.12-5.97,19.52Z"/>
        <path class="cls-22" d="M43.79,35.07c-1.57-.69-2.88-1.74-3.85-3.12-3.83-5.42-1.14-14.26,5.99-19.69,4.09-3.11,9.03-4.58,13.23-3.94,2.86.44,5.17,1.8,6.67,3.92,3.83,5.42,1.14,14.26-5.99,19.69-4.09,3.11-9.03,4.58-13.23,3.94-1.01-.16-1.96-.43-2.82-.81ZM61.89,9.37c-.84-.37-1.77-.64-2.76-.79-4.13-.64-9.01.82-13.04,3.89-7.03,5.35-9.7,14.03-5.94,19.35,1.46,2.07,3.71,3.39,6.51,3.82,4.13.64,9.01-.82,13.04-3.89,7.03-5.35,9.69-14.03,5.94-19.35-.94-1.33-2.21-2.36-3.75-3.03Z"/>
      </g>
      <g>
        <path class="cls-24" d="M62.35,14.07s-5.4-1.77-11.85,3.37c-6.42,5.13-8.22,10.7-7.84,11.6-2.18-3.08.47-8.94,5.89-13.07,5.45-4.14,11.63-4.99,13.81-1.91Z"/>
        <path class="cls-22" d="M42.61,29.16s-.04-.02-.05-.04c-2.22-3.13.44-9.07,5.91-13.24,3.61-2.75,7.74-4.16,10.77-3.7,1.42.22,2.53.85,3.22,1.82.03.04.03.1,0,.15s-.09.06-.14.04c-.05-.02-5.42-1.68-11.74,3.35-6.41,5.12-8.13,10.68-7.8,11.46.02.06,0,.13-.05.16-.04.02-.08.02-.11,0ZM60.59,12.82c-.42-.18-.88-.32-1.39-.39-2.96-.46-7.02.94-10.58,3.65-5.12,3.9-7.75,9.34-6.13,12.46.15-1.83,2.38-6.76,7.93-11.19,5.48-4.37,10.28-3.77,11.61-3.49-.38-.44-.86-.79-1.44-1.04Z"/>
      </g>
      <g>
        <path class="cls-24" d="M56.46,27.16c-5.43,4.15-11.61,4.99-13.8,1.89-.38-.9,1.42-6.47,7.84-11.6,6.45-5.14,11.85-3.37,11.85-3.37,2.17,3.1-.45,8.95-5.9,13.09Z"/>
        <path class="cls-22" d="M44.34,30.55c-.74-.33-1.35-.81-1.78-1.43-.46-1.07,1.57-6.74,7.86-11.77,6.43-5.12,11.92-3.41,11.97-3.4h.04s.02.05.02.05c2.21,3.15-.45,9.1-5.92,13.26h0c-3.59,2.75-7.7,4.16-10.73,3.7-.53-.08-1.02-.22-1.46-.41ZM62.28,14.18c-.5-.14-5.67-1.44-11.7,3.36-6.41,5.12-8.13,10.68-7.8,11.46.64.9,1.71,1.51,3.07,1.71,2.96.45,7-.94,10.54-3.65h0c5.35-4.06,7.98-9.83,5.89-12.88Z"/>
      </g>
      <ellipse class="cls-23" cx="58.75" cy="18.46" rx="3.01" ry="1.81" transform="translate(2.98 44.58) rotate(-42.54)"/>
      <ellipse class="cls-36" cx="57.91" cy="17.45" rx="1.51" ry=".9" transform="translate(3.44 43.75) rotate(-42.54)"/>
    </g>
  </g>
  <g>
    <line class="cls-21" x1="92.03" y1="77.54" x2="106.08" y2="102.22"/>
    <path class="cls-36" d="M105.98,102.45s-.09-.06-.12-.11l-14.05-24.68c-.07-.12-.03-.27.09-.34.12-.07.27-.02.34.09l14.05,24.68c.07.12.03.27-.09.34-.07.04-.15.04-.22.01Z"/>
  </g>
  <g>
    <line class="cls-21" x1="101.31" y1="39.43" x2="121.16" y2="76.08"/>
    <path class="cls-36" d="M121.34,76.25s-.04.04-.07.05c-.12.07-.27.02-.34-.1l-19.85-36.66c-.07-.12-.02-.27.1-.34.12-.07.27-.02.34.1l19.85,36.66c.05.1.03.21-.04.29Z"/>
  </g>
  <g>
    <path class="cls-32" d="M153.14,104.74s6.8-2,29.09,4.25,62.33,17.65,64.04,18.46,4.74,2.12,4.64,12.91c-.1,10.79,0,97.02,0,97.02l-32.07-14.22,1.01-7.26-10.19-64.34-47.7-26.52s-2.75-2.05-6.35.3c-1.32.86-2.18.86-2.18.86"/>
    <path class="cls-21" d="M251.16,237.76l-.35-.16-32.25-14.3,1.03-7.41-10.16-64.19-47.6-26.46c-.14-.1-2.69-1.93-6.1.29-1.36.89-2.28.9-2.32.9v-.5s.82-.02,2.04-.82c3.71-2.42,6.61-.31,6.64-.29l47.78,26.56.02.12,10.19,64.38v.04s-.99,7.07-.99,7.07l31.55,13.99c0-6.28-.1-86.33,0-96.64.1-10.52-2.74-11.86-4.44-12.66-1.76-.83-42-12.28-64.05-18.47-21.97-6.16-28.89-4.27-28.95-4.25l-.14-.48c.28-.08,7.13-1.95,29.23,4.25,22.07,6.19,62.35,17.66,64.08,18.47,1.86.87,4.88,2.29,4.78,13.14-.1,10.67,0,96.15,0,97.02v.38Z"/>
  </g>
  <g>
    <line class="cls-21" x1="122.76" y1="78.52" x2="125.58" y2="82.6"/>
    <path class="cls-36" d="M125.77,82.77s-.03.03-.04.04c-.11.08-.27.05-.35-.06l-2.82-4.08c-.08-.11-.05-.27.06-.35.11-.08.27-.05.35.06l2.82,4.08c.07.1.06.23-.02.31Z"/>
  </g>
  <g>
    <polygon class="cls-7" points="177.04 149.28 209.66 151.55 220.15 151.55 220.15 229.91 177.04 228.55 177.04 149.28"/>
    <path class="cls-21" d="M220.4,230.17h-.26s-43.36-1.38-43.36-1.38v-79.78l32.89,2.29h10.72s0,78.87,0,78.87ZM177.29,228.31l42.61,1.35v-77.85h-10.24l-32.38-2.25v78.76Z"/>
  </g>
  <path class="cls-36" d="M209.41,208.98c-.14,0-.25-.11-.25-.25v-52.79c0-.14.11-.25.25-.25s.25.11.25.25v52.79c0,.14-.11.25-.25.25Z"/>
  <g>
    <line class="cls-21" x1="66.35" y1="83.1" x2="77.37" y2="102.38"/>
    <path class="cls-36" d="M77.27,102.61s-.09-.06-.12-.11l-11.02-19.28c-.07-.12-.03-.27.09-.34.12-.07.27-.03.34.09l11.02,19.28c.07.12.03.27-.09.34-.07.04-.15.04-.22.01Z"/>
  </g>
  <g>
    <path class="cls-6" d="M152.04,142.37l2.95-6.83s2.57-12.01-33.32-24.25c-35.89-12.24-45.17-4.37-45.17-4.37l-4.64,7.66s.81,16.74,30.05,26.83c29.25,10.08,42.56,8.98,50.12.96Z"/>
    <path class="cls-21" d="M134.96,148.97c-8.22,0-18.96-2.43-33.12-7.32-8.37-2.89-19.7-8.23-26.12-17.29-3.85-5.44-4.1-9.59-4.1-9.76v-.08s4.73-7.79,4.73-7.79c.38-.32,9.8-7.82,45.41,4.32,35.69,12.17,33.59,24.04,33.48,24.54l-3.01,6.95c-4.03,4.28-9.54,6.42-17.26,6.42ZM72.12,114.65c.11,1.21,2.13,16.96,29.88,26.53,27.2,9.38,41.65,9.69,49.83,1.05l2.93-6.79c0-.07,2.01-11.92-33.17-23.91-34.3-11.7-44.29-4.89-44.9-4.44l-4.57,7.56Z"/>
  </g>
  <g>
    <path class="cls-6" d="M74.92,113.91c8.22-.71,22.83-.89,39.63,4.99,17.74,6.21,29.44,16.22,35.4,22.09"/>
    <path class="cls-36" d="M149.96,141.24c-.06,0-.13-.02-.18-.07-9.94-9.8-22.15-17.42-35.3-22.03-12.57-4.4-26.24-6.12-39.53-4.98-.14,0-.26-.09-.27-.23s.09-.26.23-.27c13.36-1.15,27.1.58,39.74,5.01,13.22,4.63,25.5,12.29,35.49,22.14.1.1.1.26,0,.35-.05.05-.11.07-.18.07Z"/>
  </g>
  <g>
    <path class="cls-19" d="M151.63,254.65c0,.69-.56,1.35-1.59,1.97-1.2.73-3.04,1.39-5.38,1.95-4.93,1.16-12,1.89-19.89,1.89s-14.96-.73-19.89-1.89c-2.34-.56-4.18-1.22-5.38-1.95-1.03-.62-1.59-1.29-1.59-1.97,0-3.19,12.02-5.81,26.85-5.81s26.85,2.61,26.85,5.81Z"/>
    <path class="cls-21" d="M124.77,260.71c-7.55,0-14.82-.69-19.94-1.89-2.4-.57-4.23-1.24-5.45-1.98-1.13-.68-1.71-1.42-1.71-2.19,0-3.79,13.78-6.06,27.1-6.06s27.1,2.27,27.1,6.06c0,.77-.57,1.5-1.71,2.19-1.22.74-3.06,1.41-5.45,1.98-5.12,1.2-12.39,1.89-19.95,1.89ZM124.77,249.1c-15.91,0-26.6,2.87-26.6,5.56,0,.58.49,1.17,1.47,1.76,1.16.71,3,1.37,5.31,1.92,5.09,1.19,12.31,1.88,19.83,1.88s14.74-.68,19.83-1.88c2.31-.55,4.15-1.22,5.31-1.92.97-.59,1.47-1.18,1.47-1.76,0-2.68-10.69-5.56-26.6-5.56Z"/>
  </g>
  <g>
    <path class="cls-15" d="M77.04,169.7s2.82,8.77,18.76,9.98l8.27-18.42-18.46-8.71-8.57,17.14Z"/>
    <path class="cls-21" d="M95.8,179.94s-.01,0-.02,0c-8.3-.63-13.01-3.34-15.5-5.51-2.72-2.36-3.45-4.56-3.48-4.65-.02-.06-.02-.13.01-.19l8.57-17.14c.06-.12.21-.17.33-.11l18.46,8.71c.12.06.18.2.12.33l-8.27,18.42c-.04.09-.13.15-.23.15ZM77.31,169.72c.36.93,3.79,8.54,18.33,9.71l8.1-18.03-18.01-8.5-8.41,16.83Z"/>
  </g>
  <g>
    <path class="cls-7" d="M105.51,165.5l-3.34,7.44c-7.87-.11-22.8-12.32-22.8-12.32l3.54-5.87s5.46,7.99,22.61,10.76Z"/>
    <path class="cls-21" d="M102.16,173.19h0c-7.86-.11-22.34-11.88-22.96-12.38-.1-.08-.12-.22-.06-.32l3.54-5.87c.04-.07.12-.12.21-.12.08,0,.17.04.21.11.01.02,1.4,2,4.84,4.29,3.18,2.12,8.81,4.94,17.61,6.36.08.01.14.06.18.13.04.07.04.15,0,.22l-3.34,7.44c-.04.09-.13.15-.23.15ZM79.69,160.56c1.65,1.33,15.03,11.87,22.32,12.13l3.14-6.99c-14.93-2.49-21.01-9.03-22.22-10.51l-3.24,5.37Z"/>
  </g>
  <g>
    <path class="cls-7" d="M107.69,160.62l-1.01,2.27h-.02c-.49.02-9.73.06-22.46-10.33l2.31-3.88,21.17,11.94Z"/>
    <path class="cls-21" d="M106.58,163.14c-1.07,0-10.19-.31-22.54-10.39-.1-.08-.12-.22-.06-.32l2.31-3.88c.07-.12.22-.15.34-.09l21.17,11.94c.11.06.16.2.11.32l-1.01,2.27c-.04.09-.13.15-.23.15,0,0-.04,0-.1,0ZM84.53,152.5c12.01,9.74,20.83,10.13,21.99,10.14l.85-1.92-20.76-11.71-2.08,3.48Z"/>
  </g>
  <g>
    <path class="cls-16" d="M106.66,162.89l-1.16,2.61c-17.14-2.76-22.61-10.76-22.61-10.76l1.31-2.19c12.73,10.39,21.97,10.35,22.46,10.33Z"/>
    <path class="cls-21" d="M105.51,165.75s-.03,0-.04,0c-17.05-2.75-22.72-10.78-22.78-10.86-.05-.08-.06-.19,0-.27l1.31-2.19c.04-.06.1-.11.17-.12.07-.01.15,0,.2.05,12.92,10.55,22.19,10.28,22.29,10.27.09.01.17.04.22.11.05.07.06.16.02.24l-1.16,2.61c-.04.09-.13.15-.23.15ZM83.2,154.73c.36.47,1.8,2.21,4.74,4.17,3.16,2.1,8.73,4.9,17.42,6.33l.93-2.09c-1.91-.07-10.55-.92-22.01-10.2l-1.07,1.8Z"/>
  </g>
  <g>
    <g>
      <g>
        <path class="cls-20" d="M79.69,154.41c.17-.45,2.34-5.81-5.8-12.46-8.86-7.23-11.37-5.82-13.49-5.95l5.83-5.68s2.46-.47,5.85,1.14c1.56.73,3.34,1.93,5.16,3.81,1.44,1.48,2.66,3,3.66,4.44l.02.04c3.02,4.26,4.22,7.78,4.22,7.78l-5.46,6.88Z"/>
        <path class="cls-21" d="M79.69,154.66s-.08-.01-.12-.03c-.11-.06-.15-.19-.11-.31,0,0,0-.02,0-.02,2.08-5.42-4.4-11.08-5.73-12.16-7.5-6.12-10.42-5.99-12.35-5.91-.35.02-.67.03-1,0-.1,0-.18-.07-.22-.16s-.01-.2.06-.27l5.83-5.68s.08-.06.13-.07c.1-.02,2.58-.47,6,1.16,1.81.84,3.57,2.15,5.24,3.87,1.33,1.37,2.57,2.87,3.69,4.47,0,.01.04.06.04.07,2.99,4.21,4.22,7.77,4.23,7.81.03.08.01.17-.04.24l-5.46,6.88c-.05.06-.12.09-.2.09ZM62.17,135.72c2.03,0,5.19.58,11.89,6.04,6.18,5.04,6.55,9.36,6.19,11.56l4.63-5.83c-.25-.67-1.5-3.85-4.14-7.59,0-.01-.04-.06-.04-.08-1.08-1.54-2.31-3.02-3.62-4.37-1.62-1.68-3.33-2.94-5.09-3.76-2.95-1.4-5.21-1.19-5.63-1.13l-5.34,5.2c.11,0,.23,0,.35-.01.25-.01.51-.02.8-.02Z"/>
      </g>
      <g>
        <path class="cls-25" d="M86.89,145.32l-1.74,2.21s-1.2-3.51-4.22-7.78l-.02-.04c-1.01-1.44-2.23-2.96-3.66-4.44-1.82-1.89-3.6-3.09-5.16-3.81-3.39-1.61-5.85-1.14-5.85-1.14l2.27-2.23s4.71.02,9.79,4.76c5.1,4.74,8.47,11.51,8.59,12.47Z"/>
        <path class="cls-21" d="M85.16,147.78s-.03,0-.04,0c-.09-.02-.17-.08-.19-.17-.01-.04-1.23-3.53-4.19-7.72,0-.01-.04-.06-.04-.08-1.08-1.54-2.31-3.02-3.62-4.37-1.62-1.68-3.33-2.94-5.09-3.76-3.26-1.55-5.67-1.12-5.7-1.12-.11.02-.22-.03-.27-.13-.05-.1-.03-.22.05-.29l2.27-2.23s.11-.07.18-.07h0c.2,0,4.87.08,9.96,4.83,5.07,4.71,8.52,11.5,8.67,12.62,0,.07,0,.13-.05.19l-1.74,2.21c-.05.06-.12.1-.2.1ZM67.18,130c1.05,0,2.84.19,5.01,1.23,1.81.84,3.57,2.15,5.24,3.87,1.33,1.37,2.57,2.87,3.69,4.47,0,.01.04.06.04.07,2.39,3.37,3.66,6.32,4.08,7.39l1.39-1.77c-.3-1.15-3.54-7.63-8.5-12.23-4.54-4.23-8.83-4.65-9.53-4.69l-1.69,1.66c.08,0,.17,0,.27,0Z"/>
      </g>
      <g>
        <path class="cls-15" d="M97.63,131.84l-10.74,13.48c-.13-.96-3.49-7.74-8.59-12.47-5.08-4.74-9.79-4.76-9.79-4.76l11.77-11.49s14.22,0,17.36,15.24Z"/>
        <path class="cls-21" d="M86.89,145.57s-.04,0-.07,0c-.1-.03-.17-.11-.18-.21-.11-.82-3.4-7.57-8.52-12.32-4.94-4.61-9.58-4.69-9.62-4.69-.1,0-.19-.06-.23-.16-.04-.09-.02-.2.06-.27l11.77-11.49s.11-.07.17-.07c.14,0,14.46.18,17.6,15.44.02.07,0,.15-.05.21l-10.74,13.48c-.05.06-.12.09-.2.09ZM69.08,127.88c1.42.16,5.27.94,9.39,4.78,4.56,4.24,7.81,10.16,8.53,12.12l10.36-13.01c-1.62-7.68-6.15-11.33-9.68-13.03-3.49-1.69-6.71-1.87-7.31-1.89l-11.29,11.03Z"/>
      </g>
      <g>
        <path class="cls-33" d="M79.52,154.53c-2.1,2.52-8.47.48-14.12-4.22-5.65-4.7-7.86-11.21-5.77-13.73,2.1-2.52,7.71-.1,13.36,4.59,5.65,4.7,8.62,10.84,6.52,13.36Z"/>
        <path class="cls-21" d="M76.68,155.87c-.87,0-1.86-.17-2.96-.5-2.68-.82-5.69-2.55-8.48-4.86-5.93-4.93-7.95-11.5-5.8-14.09,1.07-1.28,3.01-1.45,5.63-.48,2.37.88,5.17,2.62,8.09,5.05,5.75,4.78,8.76,11.06,6.55,13.71-.65.78-1.69,1.18-3.03,1.18ZM62.1,135.81c-.89,0-1.71.24-2.27.92-1.96,2.36.12,8.72,5.73,13.38,2.74,2.28,5.69,3.97,8.3,4.77,2.58.79,4.52.61,5.46-.52,1.99-2.4-1.04-8.48-6.49-13.01-2.83-2.35-5.65-4.12-7.94-4.96-.86-.32-1.87-.59-2.8-.59Z"/>
      </g>
      <g>
        <path class="cls-25" d="M61.62,138.45c.05-.15-9.23,9.08-9.23,9.08l16.12,15.42,9.1-11.24s-2.67-9.33-15.83-13.56"/>
        <path class="cls-21" d="M68.51,163.2c-.06,0-.13-.02-.17-.07l-16.12-15.42s-.08-.11-.08-.18.03-.13.07-.18c7.33-7.29,8.88-8.84,9.33-9.1-.03-.06-.03-.12-.01-.18.04-.13.18-.2.31-.16,13.14,4.23,15.97,13.64,16,13.73.02.08,0,.16-.05.23l-9.1,11.24c-.04.05-.11.09-.18.09,0,0-.01,0-.02,0ZM52.75,147.52l15.73,15.06,8.84-10.93c-.37-1.1-3.54-9.31-15.46-13.22,0,.03,0,.06-.01.09-.02.06-.06.11-.12.14-.43.36-5.51,5.4-8.99,8.86Z"/>
      </g>
      <g>
        <path class="cls-33" d="M68.54,162.91c-1.71,2.06-6.96.53-11.73-3.43s-6.95-9.11-5.24-11.17,6.69-.26,11.45,3.7,7.23,8.84,5.52,10.9Z"/>
        <path class="cls-21" d="M66.13,164.08c-.7,0-1.51-.13-2.39-.39-2.25-.66-4.77-2.08-7.1-4.02-2.29-1.9-4.11-4.17-5.12-6.38-1-2.19-1.05-4.06-.16-5.14.9-1.08,2.58-1.25,4.85-.48,2.11.71,4.58,2.18,6.95,4.15,2.33,1.94,4.19,4.15,5.25,6.24,1.09,2.15,1.2,3.93.3,5.01-.56.67-1.45,1.01-2.6,1.01ZM53.75,147.7c-.88,0-1.57.26-1.99.77-.77.93-.69,2.61.23,4.61.98,2.15,2.75,4.35,4.98,6.21,2.28,1.89,4.73,3.29,6.92,3.92,2.11.62,3.7.45,4.46-.46s.63-2.5-.36-4.47c-1.03-2.03-2.85-4.19-5.12-6.08-2.33-1.93-4.73-3.38-6.79-4.06-.87-.29-1.65-.44-2.32-.44Z"/>
      </g>
      <g>
        <path class="cls-17" d="M64.68,161.8c-1.08,1.3-4.6.16-7.87-2.55-3.26-2.71-4.85-6.13-3.77-7.44s4.43.01,7.69,2.72,5.03,5.96,3.95,7.27Z"/>
        <path class="cls-21" d="M63.25,162.58c-.51,0-1.1-.11-1.76-.32-1.52-.49-3.23-1.49-4.83-2.83-3.29-2.74-5.04-6.31-3.8-7.79,1.16-1.39,4.46-.29,8.04,2.69,1.6,1.33,2.9,2.83,3.66,4.23.8,1.47.91,2.67.32,3.38h0c-.35.42-.9.63-1.62.63ZM54.35,151.54c-.49,0-.88.14-1.11.42-.92,1.11.48,4.38,3.74,7.08,1.55,1.29,3.21,2.26,4.67,2.73,1.36.44,2.4.39,2.85-.15h0c.45-.54.31-1.57-.37-2.83-.73-1.35-1.99-2.8-3.54-4.09-2.42-2.01-4.79-3.18-6.22-3.18Z"/>
      </g>
      <g>
        <path class="cls-21" d="M61.28,160.27c-.46.55-2.12-.07-3.71-1.39s-2.43-2.91-1.97-3.47,2.04.14,3.64,1.46,2.51,2.84,2.05,3.39Z"/>
        <path class="cls-21" d="M60.75,160.72c-.89,0-2.23-.73-3.34-1.65-1.69-1.4-2.59-3.12-2-3.82.64-.77,2.46.16,3.99,1.43.79.66,1.45,1.38,1.85,2.05.57.95.44,1.45.23,1.7-.17.2-.42.29-.73.29ZM56.1,155.47c-.15,0-.25.04-.31.1-.29.35.33,1.78,1.94,3.11,1.64,1.36,3.09,1.76,3.36,1.42.11-.13.1-.5-.28-1.12-.37-.62-.99-1.3-1.74-1.92-1.37-1.14-2.45-1.6-2.98-1.6Z"/>
      </g>
    </g>
    <g>
      <g>
        <path class="cls-20" d="M129.35,155.47c-.13-.46-1.63-6.05-12.12-6.47-11.43-.45-12.59,2.18-14.36,3.35l1.24-8.04s1.69-1.86,5.36-2.61c1.69-.36,3.83-.47,6.42-.06,2.04.32,3.93.8,5.6,1.34l.04.02c4.98,1.59,8.05,3.68,8.05,3.68l-.23,8.78Z"/>
        <path class="cls-21" d="M129.35,155.72c-.11,0-.21-.07-.24-.18v-.02c-1.6-5.58-10.19-6.2-11.89-6.27-9.67-.38-11.93,1.48-13.42,2.71-.27.22-.52.43-.79.61-.08.05-.19.06-.27,0-.08-.05-.13-.15-.11-.25l1.24-8.04s.03-.09.06-.13c.07-.08,1.78-1.93,5.49-2.69,1.96-.41,4.15-.43,6.51-.06,1.89.3,3.78.75,5.63,1.35.01,0,.06.03.08.03,4.92,1.57,8.05,3.67,8.08,3.7.07.05.11.13.11.21l-.23,8.78c0,.12-.1.23-.22.24-.01,0-.02,0-.03,0ZM114.78,148.7c.76,0,1.58.02,2.46.05,7.97.32,10.86,3.54,11.89,5.51l.2-7.45c-.6-.38-3.51-2.18-7.87-3.57-.01,0-.07-.03-.08-.03-1.79-.58-3.66-1.03-5.52-1.32-2.3-.37-4.43-.35-6.33.05-3.2.66-4.87,2.18-5.17,2.48l-1.14,7.36c.09-.07.18-.15.27-.22,1.41-1.16,3.49-2.87,11.3-2.87Z"/>
      </g>
      <g>
        <path class="cls-25" d="M129.64,143.88l-.06,2.81s-3.07-2.09-8.05-3.68l-.04-.02c-1.67-.54-3.56-1.02-5.6-1.34-2.59-.41-4.73-.3-6.42.06-3.67.75-5.36,2.61-5.36,2.61l.48-3.15s3.78-2.82,10.69-2.09c6.92.72,13.68,4.11,14.37,4.8Z"/>
        <path class="cls-21" d="M129.58,146.94s-.1-.01-.14-.04c-.03-.02-3.1-2.09-7.99-3.65-.01,0-.07-.03-.08-.03-1.79-.58-3.66-1.03-5.52-1.32-2.3-.37-4.43-.35-6.33.05-3.54.72-5.21,2.52-5.22,2.53-.08.08-.2.1-.29.06-.1-.05-.16-.15-.14-.26l.48-3.15c0-.07.04-.12.1-.16.16-.12,3.94-2.87,10.86-2.13,6.88.71,13.73,4.07,14.52,4.87.05.05.07.11.07.18l-.06,2.81c0,.09-.05.17-.14.22-.04.02-.08.03-.11.03ZM112.69,141.13c1.04,0,2.12.09,3.24.27,1.89.3,3.78.75,5.63,1.35.01,0,.06.03.08.03,3.94,1.26,6.73,2.85,7.7,3.45l.05-2.25c-.93-.74-7.42-3.96-14.14-4.66-6.17-.65-9.85,1.59-10.43,1.98l-.35,2.35c.77-.62,2.38-1.67,4.96-2.2,1.03-.22,2.12-.33,3.27-.33Z"/>
      </g>
      <g>
        <path class="cls-15" d="M130.12,126.65l-.47,17.23c-.68-.69-7.44-4.08-14.37-4.8-6.91-.73-10.69,2.09-10.69,2.09l2.49-16.25s11.37-8.55,23.03,1.74Z"/>
        <path class="cls-21" d="M129.64,144.13c-.07,0-.13-.03-.18-.07-.58-.59-7.27-4.01-14.21-4.73-6.71-.71-10.47,2.01-10.51,2.04-.08.06-.19.07-.28.01-.09-.05-.13-.15-.12-.25l2.5-16.25c0-.06.04-.12.1-.16.12-.09,11.66-8.55,23.35,1.75.06.05.09.12.08.19l-.47,17.23c0,.1-.06.19-.16.23-.03.01-.06.02-.09.02ZM113,138.71c.72,0,1.49.04,2.3.12,6.19.64,12.35,3.42,14.1,4.56l.46-16.63c-5.91-5.17-11.73-5.35-15.57-4.6-3.8.75-6.49,2.54-6.98,2.89l-2.39,15.6c1.05-.62,3.8-1.95,8.08-1.95Z"/>
      </g>
      <g>
        <path class="cls-33" d="M129.29,155.67c-.16,3.28-6.48,5.47-13.82,5.12-7.34-.35-13.02-4.23-12.87-7.51.16-3.28,6.1-4.72,13.44-4.36,7.34.35,13.4,3.48,13.24,6.75Z"/>
        <path class="cls-21" d="M117.06,161.08c-.52,0-1.06-.01-1.6-.04-3.48-.17-6.81-1.12-9.36-2.69-2.46-1.51-3.82-3.36-3.74-5.07.08-1.67,1.53-2.97,4.21-3.77,2.42-.73,5.71-1.01,9.5-.83,7.47.36,13.65,3.57,13.48,7.02h0c-.15,3.14-5.51,5.39-12.48,5.39ZM113.94,149.12c-2.83,0-5.35.3-7.24.86-1.71.51-3.76,1.5-3.85,3.32-.07,1.51,1.24,3.23,3.5,4.62,2.49,1.53,5.73,2.46,9.13,2.62,7.32.35,13.41-1.83,13.55-4.88.15-3.12-5.93-6.15-13.01-6.49-.71-.03-1.41-.05-2.09-.05ZM129.29,155.67h0,0Z"/>
      </g>
      <g>
        <path class="cls-25" d="M105.31,153.58c-.05-.15-1.91,12.81-1.91,12.81l22.15,2.63.51-14.45s-7.74-5.85-20.81-1.32"/>
        <path class="cls-21" d="M125.55,169.27s-.02,0-.03,0l-22.15-2.63c-.07,0-.13-.04-.17-.1-.04-.05-.06-.12-.05-.19,1.47-10.23,1.78-12.41,1.98-12.88-.05-.03-.1-.08-.12-.14-.04-.13.02-.27.15-.32,13.04-4.52,20.96,1.3,21.04,1.36.06.05.1.13.1.21l-.51,14.45c0,.07-.03.14-.09.18-.05.04-.1.06-.16.06ZM103.68,166.17l21.63,2.57.49-14.05c-.96-.65-8.43-5.31-20.3-1.27.02.02.03.05.04.08.02.06.02.13,0,.18-.12.55-1.16,7.63-1.86,12.49Z"/>
      </g>
      <g>
        <path class="cls-33" d="M125.55,168.97c-.13,2.68-5.25,4.61-11.43,4.31-6.18-.3-11.03-3.1-10.9-5.78.13-2.68,5.19-4.22,11.37-3.93,6.18.3,11.09,2.71,10.96,5.39Z"/>
        <path class="cls-21" d="M115.38,173.56c-.42,0-.85-.01-1.28-.03-6.18-.3-11.29-3.06-11.14-6.04.13-2.73,5.02-4.49,11.63-4.16,3.02.15,5.85.8,7.95,1.83,2.17,1.07,3.32,2.42,3.25,3.83-.07,1.4-1.35,2.64-3.61,3.49-1.88.71-4.26,1.08-6.81,1.08ZM113.08,163.79c-5.48,0-9.51,1.52-9.62,3.72-.11,2.36,4.24,5.2,10.67,5.52,2.96.14,5.76-.22,7.89-1.02,2.06-.78,3.23-1.86,3.28-3.05h0c.06-1.19-1-2.38-2.97-3.35-2.04-1-4.79-1.64-7.75-1.78-.51-.02-1-.04-1.49-.04Z"/>
      </g>
      <g>
        <path class="cls-17" d="M121.8,170.4c-.08,1.69-3.58,2.9-7.82,2.69s-7.57-1.98-7.48-3.68c.08-1.69,3.54-2.65,7.78-2.45s7.6,1.74,7.52,3.43Z"/>
        <path class="cls-21" d="M114.92,173.37c-.31,0-.63,0-.95-.02-2.05-.1-3.99-.56-5.46-1.31-1.48-.75-2.3-1.71-2.26-2.63.04-.93.91-1.68,2.51-2.16,1.45-.44,3.41-.63,5.53-.52,4.44.21,7.85,1.84,7.76,3.69-.04.93-.94,1.74-2.52,2.28-1.28.44-2.89.67-4.61.67ZM113.16,167.19c-1.63,0-3.12.18-4.26.53-1.36.41-2.12,1.02-2.15,1.71-.03.71.71,1.52,1.99,2.16,1.41.71,3.28,1.16,5.26,1.25,2.01.09,3.93-.12,5.37-.62,1.35-.47,2.15-1.13,2.18-1.83.07-1.52-3.26-2.98-7.29-3.17-.37-.02-.74-.03-1.1-.03Z"/>
      </g>
      <g>
        <path class="cls-21" d="M118.17,171.23c-.03.72-1.74,1.22-3.8,1.12s-3.69-.87-3.66-1.58,1.72-1.12,3.78-1.02,3.71.76,3.68,1.48Z"/>
        <path class="cls-21" d="M114.86,172.61c-.17,0-.34,0-.5-.01-2.19-.11-3.94-.93-3.9-1.85.05-1,2.07-1.35,4.05-1.25,1.93.09,3.96.74,3.91,1.74h-.25s.25,0,.25,0c-.04.92-1.79,1.37-3.56,1.37ZM113.85,169.98c-1.87,0-2.88.44-2.9.79-.02.46,1.33,1.22,3.42,1.32,2.13.1,3.52-.45,3.54-.88h0c.02-.43-1.31-1.12-3.44-1.22-.22-.01-.43-.02-.63-.02Z"/>
      </g>
    </g>
  </g>
  <g>
    <path class="cls-20" d="M259.61,285.47c-1.2,0-2.38-.15-3.51-.45l3.51.45Z"/>
    <path class="cls-21" d="M259.61,285.72c-1.22,0-2.43-.15-3.58-.46-.13-.03-.21-.16-.18-.29.02-.13.15-.21.28-.2l3.51.45c.13.02.23.13.22.26,0,.13-.12.23-.25.23Z"/>
  </g>
  <g>
    <path class="cls-20" d="M236.49,226.92c1.18,0,2.36.15,3.47.45l-3.47-.45Z"/>
    <path class="cls-21" d="M239.96,227.62s-.02,0-.03,0l-3.47-.45c-.13-.02-.23-.13-.22-.26,0-.13.12-.23.25-.23,1.22,0,2.41.15,3.54.46.13.03.21.16.18.29-.02.12-.13.2-.25.2Z"/>
  </g>
  <g>
    <ellipse class="cls-26" cx="234.68" cy="252.25" rx="22.6" ry="32.77"/>
    <path class="cls-21" d="M234.68,285.27c-12.6,0-22.85-14.81-22.85-33.02s10.25-33.02,22.85-33.02,22.85,14.81,22.85,33.02-10.25,33.02-22.85,33.02ZM234.68,219.73c-12.33,0-22.35,14.59-22.35,32.52s10.03,32.52,22.35,32.52,22.35-14.59,22.35-32.52-10.03-32.52-22.35-32.52Z"/>
  </g>
  <g>
    <path class="cls-20" d="M256.16,285.02l-19.25-2.53c-10.6,0-19.19-12.45-19.19-27.8s8.58-27.77,19.19-27.77l3.41.45,19.29,2.53c-3.66,0-7.05,1.48-9.95,4.05-5.53,4.86-9.21,13.69-9.21,23.75,0,8.25,2.48,15.64,6.42,20.74,2.59,3.32,5.76,5.66,9.3,6.58Z"/>
    <path class="cls-21" d="M256.16,285.27s-.02,0-.03,0l-19.25-2.53h0c-10.68,0-19.4-12.58-19.4-28.04s8.72-28.02,19.44-28.02l22.73,2.98c.13.02.23.13.22.26,0,.13-.12.23-.25.23-3.46,0-6.84,1.38-9.78,3.99-5.63,4.95-9.13,13.98-9.13,23.56,0,7.84,2.32,15.35,6.37,20.59,2.62,3.37,5.79,5.61,9.16,6.49.13.03.21.16.18.29-.02.12-.13.2-.25.2ZM236.88,227.17c-10.41,0-18.9,12.35-18.9,27.53s8.5,27.54,18.94,27.54l16.92,2.22c-2.63-1.18-5.07-3.17-7.17-5.87-4.11-5.33-6.47-12.95-6.47-20.9,0-9.87,3.48-18.81,9.3-23.93,2.38-2.11,5.04-3.44,7.8-3.91l-20.42-2.68Z"/>
  </g>
  <g>
    <path class="cls-20" d="M259.61,229.9c10.78,0,19.52,12.45,19.52,27.8s-8.74,27.77-19.52,27.77l-3.51-.45c-3.6-.92-6.84-3.26-9.47-6.58-4.01-5.1-6.54-12.49-6.54-20.74,0-10.05,3.75-18.88,9.39-23.75,2.96-2.57,6.41-4.05,10.14-4.05"/>
    <path class="cls-21" d="M259.61,285.72l-3.55-.45c-3.57-.91-6.89-3.22-9.64-6.67-4.19-5.33-6.59-12.95-6.59-20.9,0-9.87,3.54-18.81,9.47-23.93,3.09-2.69,6.66-4.11,10.3-4.11,10.9,0,19.77,12.58,19.77,28.05s-8.87,28.02-19.77,28.02ZM259.61,230.15c-3.52,0-6.97,1.38-9.97,3.99-5.74,4.95-9.3,13.98-9.3,23.56,0,7.84,2.36,15.35,6.48,20.59,2.67,3.37,5.9,5.61,9.34,6.49l3.48.44c10.59,0,19.24-12.35,19.24-27.53s-8.65-27.55-19.27-27.55Z"/>
  </g>
  <g>
    <path class="cls-20" d="M281.71,274.48h-18.54c-6.58,0-11.89-6.88-11.89-15.37s5.31-15.37,11.89-15.37l4.2,1.01,14.34,3.41c-3.09,0-5.87,1.78-7.71,4.61-1.54,2.29-2.46,5.27-2.46,8.55,0,2.4.49,4.67,1.37,6.6,1.76,3.92,5.06,6.56,8.81,6.56Z"/>
    <path class="cls-21" d="M281.71,274.73h-18.54c-6.7,0-12.14-7.01-12.14-15.62s5.45-15.62,12.14-15.62l18.6,4.42c.12.03.21.15.19.27s-.12.22-.25.22c-2.91,0-5.64,1.64-7.51,4.5-1.56,2.32-2.42,5.31-2.42,8.41,0,2.31.47,4.56,1.35,6.5,1.77,3.96,5.06,6.41,8.58,6.41.14,0,.25.11.25.25s-.11.25-.25.25ZM263.11,243.99c-6.36,0-11.58,6.79-11.58,15.12s5.22,15.12,11.64,15.12h15.72c-2.59-.94-4.85-3.14-6.22-6.21-.91-2-1.39-4.32-1.39-6.7,0-3.2.89-6.29,2.51-8.69,1.63-2.5,3.9-4.11,6.39-4.58l-17.07-4.06Z"/>
  </g>
  <g>
    <path class="cls-11" d="M224.53,291.77l-2.06,3.64c0,.84-5.76,1.5-12.86,1.5s-12.86-.66-12.86-1.5l-2.06-3.64c.77.77,7.16,1.37,14.92,1.37s14.14-.6,14.92-1.37Z"/>
    <path class="cls-21" d="M209.62,297.16c-.53,0-12.7-.02-13.1-1.67l-2.04-3.6c-.06-.11-.03-.25.07-.32.1-.08.24-.07.33.02.62.62,6.44,1.3,14.74,1.3s14.11-.67,14.74-1.3c.09-.09.23-.1.33-.02s.13.21.07.32l-2.03,3.6c-.4,1.65-12.57,1.67-13.1,1.67ZM195.3,292.33l1.67,2.96s.03.08.03.12c.26.5,4.9,1.25,12.61,1.25s12.35-.75,12.61-1.27c0-.04,0-.06.03-.1l1.67-2.96c-2.26.7-8.5,1.07-14.31,1.07s-12.06-.36-14.32-1.07Z"/>
  </g>
  <g>
    <path class="cls-20" d="M291.91,261.32c0,7.29-4.56,13.16-10.2,13.16-3.75,0-7.05-2.64-8.81-6.56-.88-1.93-1.37-4.2-1.37-6.6,0-3.28.92-6.26,2.46-8.55,1.84-2.83,4.63-4.61,7.71-4.61,5.64,0,10.2,5.89,10.2,13.16Z"/>
    <path class="cls-21" d="M281.71,274.73c-3.72,0-7.18-2.57-9.04-6.71-.91-2-1.39-4.32-1.39-6.7,0-3.2.89-6.29,2.51-8.69,1.95-3,4.84-4.72,7.92-4.72,5.76,0,10.45,6.02,10.45,13.41s-4.69,13.41-10.45,13.41ZM281.71,248.41c-2.91,0-5.64,1.64-7.51,4.5-1.56,2.32-2.42,5.31-2.42,8.41,0,2.31.47,4.56,1.35,6.5,1.77,3.96,5.06,6.41,8.58,6.41,5.49,0,9.95-5.79,9.95-12.91s-4.46-12.91-9.95-12.91Z"/>
  </g>
  <g>
    <path class="cls-20" d="M222.47,295.41l-.43,17.02c0,.81-5.76,1.5-12.86,1.5s-12.86-.69-12.86-1.5l.43-17.02c0,.84,5.76,1.5,12.86,1.5s12.86-.66,12.86-1.5Z"/>
    <path class="cls-21" d="M209.19,314.18c-.13,0-13.11-.02-13.11-1.75l.43-17.02c0-.14.11-.24.25-.24h0c.14,0,.25.11.25.25.26.5,4.9,1.25,12.61,1.25s12.31-.75,12.61-1.27c0-.13.12-.23.25-.23h0c.14,0,.25.11.25.25h0s-.43,17.02-.43,17.02c0,1.72-12.98,1.75-13.11,1.75ZM196.99,295.96l-.42,16.48c.27.49,4.93,1.25,12.61,1.25s12.33-.75,12.61-1.28l.41-16.43c-2.37,1.18-12.12,1.19-12.59,1.19s-10.3-.02-12.62-1.21Z"/>
  </g>
  <g>
    <path class="cls-5" d="M144.83,238.24v13.16c0,2.4-8.98,4.35-20.06,4.35s-20.06-1.95-20.06-4.35v-14.02l40.12.86Z"/>
    <path class="cls-21" d="M124.77,256c-9.98,0-20.31-1.72-20.31-4.6v-14.02c0-.07.03-.13.08-.18.05-.05.11-.07.18-.07l40.12.86c.14,0,.24.11.24.25v13.16c0,2.88-10.33,4.6-20.31,4.6ZM104.96,237.64v13.76c0,1.98,7.96,4.1,19.81,4.1s19.81-2.12,19.81-4.1v-12.91l-39.62-.85Z"/>
  </g>
  <g>
    <path class="cls-20" d="M224.66,272.2l-.04,19.42s-.02.11-.09.15c-.77.77-7.16,1.37-14.92,1.37s-14.14-.6-14.92-1.37c-.06-.04-.09-.11-.09-.15l.06-19.42c0,1.41,6.71,2.57,15,2.57s14.98-1.16,14.98-2.57Z"/>
    <path class="cls-21" d="M209.62,293.39c-6.78,0-14.14-.5-15.09-1.44-.08-.05-.16-.19-.16-.33l.06-19.42c0-.14.11-.25.25-.25h0c.14,0,.25.11.25.25,0,.97,5.61,2.32,14.75,2.32s14.72-1.35,14.73-2.32h0c0-.14.11-.25.25-.25h0c.14,0,.25.11.25.25h0s-.04,19.42-.04,19.42c0,.14-.08.28-.2.36-.91.92-8.27,1.41-15.05,1.41ZM194.86,291.59c.77.65,6.55,1.31,14.75,1.31s14.11-.67,14.74-1.3c0,0,0,0,.01-.01l.04-18.61c-1.84,1.34-8.45,2.05-14.73,2.05s-12.92-.72-14.75-2.06l-.06,18.62ZM194.84,291.56s0,0,.01.01c0,0,0,0-.01-.01Z"/>
  </g>
  <g>
    <path class="cls-32" d="M224.66,272.2c0,1.41-6.71,2.57-14.98,2.57s-15-1.16-15-2.57,6.71-2.57,15-2.57,14.98,1.16,14.98,2.57Z"/>
    <path class="cls-21" d="M209.68,275.03c-7.39,0-15.25-.99-15.25-2.82s7.86-2.82,15.25-2.82,15.23.99,15.23,2.82-7.85,2.82-15.23,2.82ZM209.68,269.88c-9.14,0-14.75,1.35-14.75,2.32s5.61,2.32,14.75,2.32,14.73-1.35,14.73-2.32-5.6-2.32-14.73-2.32Z"/>
  </g>
  <g>
    <path class="cls-11" d="M216.6,271.89c0,.66-3.17,1.22-7.07,1.22s-7.07-.55-7.07-1.22l-.13-36.7c0-.66,3.17-1.22,7.07-1.22s7.07.55,7.07,1.22l.13,36.7Z"/>
    <path class="cls-21" d="M209.53,273.35c-.3,0-7.32-.02-7.32-1.47l-.13-36.7c0-1.16,4.79-1.47,7.32-1.47s7.32.31,7.32,1.47l.13,36.7h0c0,1.16-4.79,1.47-7.32,1.47ZM209.4,234.22c-4.3,0-6.69.63-6.82.98l.13,36.69c.13.34,2.51.97,6.82.97s6.68-.62,6.82-.97l-.13-36.69c-.13-.34-2.52-.97-6.82-.97Z"/>
  </g>
  <g>
    <g>
      <path class="cls-26" d="M220.4,217.53l-.26.04-48.13,9.37-36.15,7.03-5.31-.02-47.45-8.47-45.2-8.08c-.41-.06-.64-.36-.69-.69v-.28c.04-.34.28-.64.69-.73l.54-.09,79.53-14.1h.28l102.12,14.32c.96.15,1.01,1.5.04,1.69Z"/>
      <path class="cls-21" d="M135.95,234.46h-5.41s-47.53-8.49-47.53-8.49l-45.2-8.08c-.58-.09-1.02-.53-1.09-1.11v-.34c.07-.65.49-1.09,1.08-1.22l.56-.09,79.52-14.1h.37s102.19,14.31,102.19,14.31c.68.11,1.16.65,1.18,1.32.01.67-.44,1.22-1.1,1.36,0,0,0,0-.02,0l-.26.04-84.27,16.39ZM118.17,202.02h-.21s-79.99,14.19-79.99,14.19c-.19.04-.25.19-.27.3v.22s.05.16.27.19l92.65,16.55h5.23s84.45-16.42,84.45-16.42c.27-.06.3-.27.29-.35,0-.07-.03-.31-.32-.35l-102.11-14.31Z"/>
    </g>
    <g>
      <path class="cls-31" d="M221.09,234.5l-86.9,16.89c-.11.02-.21.02-.3,0l-95.32-17.02c-.45-.06-1.51-.45-1.53-.8-.02-.36.01-17.83.01-17.83.04.32,1.46.75,1.86.82l45.2,8.08,47.45,8.47,2.66.47c.11.02.21.02.32,0l2.34-.45,36.15-7.03,48.13-9.37.76,16.02c.02.76.08,1.58-.82,1.75Z"/>
      <path class="cls-21" d="M134.03,251.9c-.09,0-.18-.01-.26-.03l-95.29-17.01s-1.89-.34-1.94-1.26c-.02-.37,0-16.07.01-17.86,0-.26.2-.48.47-.5.21,0,.4.11.49.29.23.17,1.13.47,1.49.53l95.31,17.02c.05.01.09,0,.14,0l2.34-.45,84.29-16.39c.14-.03.29,0,.4.1.11.09.18.22.19.37l.76,16.02s0,.1,0,.1c.02.72.05,1.92-1.23,2.16l-86.9,16.89c-.08.02-.17.03-.25.03ZM133.97,250.89s.11,0,.12,0l86.9-16.89h0c.37-.07.44-.26.42-1.15l-.73-15.52-86.06,16.73c-.17.03-.34.03-.51,0l-50.09-8.93-45.2-8.08s-.67-.12-1.28-.37c-.01,5.9-.02,15.62-.01,16.77.19.15.77.38,1.1.43l95.34,17.02h0ZM37.54,215.68s0,0,0,0c0,0,0,0,0,0Z"/>
    </g>
  </g>
  <g>
    <g>
      <rect class="cls-27" x="100.2" y="210.55" width="58.54" height="9.23" rx="4.09" ry="4.09" transform="translate(-44.97 34.53) rotate(-12.96)"/>
      <path class="cls-21" d="M105.04,225.66c-.8,0-1.6-.23-2.29-.66-.98-.62-1.67-1.58-1.93-2.71l-.23-1.02c-.54-2.33.92-4.67,3.26-5.2l49.08-11.3c2.34-.54,4.67.92,5.2,3.26l.24,1.02c.26,1.13.07,2.29-.55,3.28-.62.98-1.58,1.67-2.71,1.93l-49.08,11.3c-.33.08-.66.11-.98.11ZM153.89,205.16c-.28,0-.57.03-.86.1l-49.08,11.3c-2.06.48-3.36,2.54-2.88,4.6l.23,1.02c.23,1,.84,1.85,1.71,2.39.87.54,1.9.72,2.9.49l49.08-11.3h0c1-.23,1.85-.84,2.39-1.71.54-.87.72-1.9.49-2.9l-.24-1.02c-.41-1.77-1.99-2.98-3.74-2.98Z"/>
    </g>
    <g>
      <ellipse class="cls-21" cx="130.86" cy="214.62" rx="5.89" ry="1.4" transform="translate(-13.04 8.52) rotate(-3.55)"/>
      <path class="cls-36" d="M129.45,216.56c-1.03,0-1.98-.07-2.77-.21-1.44-.25-2.16-.69-2.2-1.34-.11-1.84,5.61-2.25,6.26-2.29,1.61-.1,3.13-.04,4.3.16,1.44.25,2.16.69,2.2,1.34.11,1.84-5.61,2.25-6.26,2.29-.52.03-1.03.05-1.53.05ZM125.52,214.95c.39.33,2.36.76,5.4.57,3.05-.19,4.94-.86,5.29-1.23-.39-.33-2.35-.76-5.4-.57-3.05.19-4.94.86-5.29,1.23Z"/>
    </g>
  </g>
  <g>
    <path class="cls-32" d="M116.49,199.5s2.86-1.51,8.13-1.55,16.87,1.29,33.81,4.52c16.94,3.23,31.77,5.24,31.77,5.24,0,0,10.74,2.61,1.74,4.87-9,2.27-38.8,6.89-38.8,6.89,0,0-23-1.37-5.38-5.23,17.62-3.86,9.45-3.3,9.45-3.3,0,0-6.81.3-1.21-1.31,5.6-1.61-1.51-1.92-1.51-1.92,0,0-5.5.66-11.3-1.2-5.8-1.87-6.71-2.62-10.84-2.47s-10.1,2.77-13.52,2.37-8.41-1.57-8.56-2.8,6.21-4.11,6.21-4.11Z"/>
    <path class="cls-21" d="M153.18,219.73c-2.07-.12-12.16-.82-12.31-2.77-.05-.67.68-1.61,6.84-2.95,7.83-1.72,10.22-2.48,10.92-2.82-.34-.03-.91-.03-1.39,0-3.56.16-3.65-.34-3.68-.53-.06-.36.3-.67,2.38-1.27,1.81-.52,1.96-.82,1.97-.85-.14-.22-1.74-.51-3.42-.59-.01,0-5.58.65-11.36-1.21-1.28-.41-2.32-.77-3.21-1.08-3.18-1.09-4.37-1.5-7.54-1.38-1.87.07-4.15.66-6.35,1.23-2.73.7-5.3,1.37-7.21,1.14-2.37-.28-8.58-1.37-8.78-3.02-.16-1.31,4.81-3.67,6.35-4.36.2-.1,3.05-1.54,8.24-1.58.07,0,.15,0,.22,0,6.21,0,18.75,1.69,33.63,4.53,16.74,3.19,31.61,5.22,31.75,5.24.59.14,5.54,1.39,5.55,3.1,0,.9-1.2,1.62-3.78,2.27-8.91,2.25-38.52,6.85-38.82,6.9ZM158.09,210.67c1.21,0,1.25.26,1.27.41.05.37.12.87-11.54,3.42-6.06,1.33-6.47,2.19-6.45,2.43.08,1.01,6.05,1.97,11.79,2.31.24-.04,29.83-4.65,38.72-6.89,2.97-.75,3.41-1.44,3.41-1.78,0-.99-3.16-2.13-5.14-2.61-.12-.02-15-2.04-31.76-5.24-15.04-2.87-27.63-4.54-33.76-4.52-5.14.03-7.99,1.51-8.02,1.52h-.01c-2.98,1.35-6.15,3.21-6.07,3.85.1.85,4.08,2.08,8.35,2.58,1.81.21,4.34-.44,7.02-1.13,2.23-.58,4.54-1.17,6.46-1.24,3.27-.12,4.57.33,7.72,1.41.89.31,1.93.66,3.21,1.07,5.68,1.83,11.13,1.2,11.19,1.19,1.46.06,3.85.28,3.94,1.04.06.48-.62.88-2.33,1.37-1.25.36-1.74.59-1.93.7.47.13,1.85.17,3.06.12.35-.02.64-.03.88-.03Z"/>
  </g>
  <g>
    <g>
      <path class="cls-35" d="M138.62,195.03c0,.64-1.97,1.14-4.39,1.14s-4.39-.49-4.39-1.14,1.97-1.14,4.39-1.14,4.39.51,4.39,1.14Z"/>
      <path class="cls-21" d="M134.22,196.42c-2.24,0-4.64-.43-4.64-1.39,0-1.02,2.78-1.39,4.64-1.39s4.64.37,4.64,1.39c0,.95-2.41,1.39-4.64,1.39ZM134.22,194.15c-2.73,0-4.14.62-4.14.89,0,.3,1.46.89,4.14.89s4.14-.58,4.14-.89c0-.27-1.41-.89-4.14-.89Z"/>
    </g>
    <g>
      <path class="cls-35" d="M138.62,195.03l-.13,3.99c0,.62-1.91,1.14-4.29,1.14s-4.29-.51-4.29-1.14l-.09-3.99c0,.64,1.97,1.14,4.39,1.14s4.39-.49,4.39-1.14Z"/>
      <path class="cls-21" d="M134.2,200.4c-2.18,0-4.54-.43-4.54-1.39l-.09-3.96s0-.01,0-.02c0-.14.11-.25.25-.25.13-.03.25.11.25.24h0c.02.31,1.48.89,4.14.89s4.11-.57,4.14-.88v-.02c0-.14.1-.25.25-.24.14,0,.25.11.25.25,0,.01,0,.02,0,.03l-.13,3.96c0,.94-2.35,1.38-4.54,1.38ZM130.09,195.72l.07,3.3c0,.31,1.42.89,4.04.89s4.04-.59,4.04-.89l.11-3.3c-.83.48-2.52.7-4.12.7s-3.3-.22-4.13-.7Z"/>
    </g>
  </g>
  <g>
    <path class="cls-32" d="M118.84,200.27s-17.74,7.56.94,14.89c0,0-28.89-3.69-16.71-14.89"/>
    <path class="cls-21" d="M119.78,215.41s-.02,0-.03,0c-.72-.09-17.7-2.33-19.73-8.69-.65-2.04.32-4.28,2.88-6.63l.34.37c-2.41,2.21-3.33,4.27-2.74,6.11,1.53,4.81,12.67,7.23,17.31,8.03-4.5-2.05-6.79-4.31-6.83-6.73-.06-4.44,7.45-7.69,7.77-7.83l.2.46c-.08.03-7.52,3.25-7.46,7.36.04,2.52,2.86,4.9,8.4,7.07.12.05.18.17.15.29-.03.11-.13.19-.24.19Z"/>
  </g>
  <g>
    <path class="cls-35" d="M117.23,193.8c0,.17-.26.34-.73.47h-.02c-1.07.32-3.17.54-5.55.54s-4.48-.21-5.55-.54h-.02c-.47-.13-.73-.3-.73-.47,0-.56,2.81-1.01,6.3-1.01s6.3.45,6.3,1.01Z"/>
    <path class="cls-21" d="M110.93,195.05c-2.32,0-4.46-.21-5.59-.54-.02,0-.03,0-.04,0-.61-.17-.91-.41-.91-.71,0-1.22,5.88-1.26,6.55-1.26s6.55.04,6.55,1.26c0,.31-.31.55-.91.71-.02,0-.04,0-.07,0-1.07.33-3.23.54-5.57.54ZM105.4,194.02s.04,0,.05,0c1.08.32,3.18.52,5.48.52s4.4-.2,5.48-.52c.02,0,.05-.01.07-.01.31-.09.44-.18.48-.22-.31-.32-2.55-.76-6.03-.76s-5.81.45-6.05.77c.03,0,.15.1.52.21ZM116.99,193.83h0,0Z"/>
  </g>
  <g>
    <path class="cls-35" d="M118.84,200.27c0,.69-3.54,1.24-7.89,1.24s-7.89-.56-7.89-1.24l-.02-5.1c0,.69,3.54,1.26,7.89,1.26s7.89-.58,7.89-1.26l.02,5.1Z"/>
    <path class="cls-21" d="M110.95,201.76c-.33,0-8.14-.02-8.14-1.49l-.02-5.1h0c0-.14.11-.25.25-.25h0c.14,0,.25.11.25.25h0c.15.36,2.83,1.02,7.64,1.02s7.49-.66,7.64-1.03c0-.14.11-.24.25-.24h0c.14,0,.25.12.25.26h0s.02,5.1.02,5.1h0c0,1.48-7.8,1.49-8.14,1.49ZM103.3,195.75l.02,4.52c.15.35,2.83.99,7.64.99s7.46-.64,7.64-1l-.02-4.51c-1.39.73-5.35.94-7.64.94s-6.24-.21-7.63-.93Z"/>
  </g>
  <g>
    <path class="cls-35" d="M118.82,195.17c0,.69-3.54,1.26-7.89,1.26s-7.89-.58-7.89-1.26l.49-.43,1.09-.94c0,.17.26.34.73.47h.02c1.07.32,3.15.54,5.55.54s4.48-.21,5.55-.54h.02c.47-.13.73-.3.73-.47l1.09.94.49.43Z"/>
    <path class="cls-21" d="M110.93,196.68c-2.81,0-8.14-.32-8.14-1.51,0-.07.03-.14.09-.19l1.59-1.37c.07-.06.18-.08.27-.04.09.04.15.13.15.23,0-.01.09.11.52.23.02,0,.04,0,.05,0,1.08.32,3.18.52,5.48.52s4.4-.2,5.48-.52c.02,0,.05-.01.07-.01.43-.12.5-.25.5-.25,0-.1.05-.17.14-.21.09-.04.19-.01.26.05l1.59,1.37c.05.05.09.12.09.19,0,1.2-5.32,1.51-8.14,1.51ZM103.35,195.23c.43.37,3.07.95,7.58.95s7.13-.58,7.58-.95l-1.22-1.05c-.15.13-.39.24-.72.33-.02,0-.04,0-.07,0-1.07.33-3.23.54-5.57.54s-4.46-.21-5.59-.54c-.02,0-.03,0-.04,0-.33-.09-.57-.2-.72-.33l-1.22,1.06Z"/>
  </g>
  <g>
    <path class="cls-26" d="M37.21,216.44v-.84l1.22.02-.54.09c-.41.09-.64.39-.69.73Z"/>
    <path class="cls-21" d="M37.21,216.94s-.02,0-.03,0c-.26-.02-.47-.23-.47-.5v-.84c0-.13.05-.26.15-.36.1-.09.22-.15.36-.14l1.22.02c.26,0,.47.21.49.46.02.26-.16.49-.42.53l-.54.09c-.19.04-.25.19-.27.3-.03.25-.25.44-.5.44Z"/>
  </g>
  <g>
    <g>
      <path class="cls-35" d="M186.67,203.61c0,.64-1.97,1.14-4.39,1.14s-4.39-.49-4.39-1.14,1.97-1.14,4.39-1.14,4.39.51,4.39,1.14Z"/>
      <path class="cls-21" d="M182.28,205c-2.24,0-4.64-.43-4.64-1.39,0-1.02,2.78-1.39,4.64-1.39s4.64.37,4.64,1.39c0,.95-2.41,1.39-4.64,1.39ZM182.28,202.72c-2.73,0-4.14.62-4.14.89,0,.3,1.46.89,4.14.89s4.14-.58,4.14-.89c0-.26-1.41-.89-4.14-.89Z"/>
    </g>
    <g>
      <path class="cls-35" d="M186.67,203.61l-.13,3.99c0,.62-1.91,1.14-4.29,1.14s-4.29-.51-4.29-1.14l-.09-3.99c0,.64,1.97,1.14,4.39,1.14s4.39-.49,4.39-1.14Z"/>
      <path class="cls-21" d="M182.26,208.98c-2.18,0-4.54-.43-4.54-1.39l-.09-3.97v-.02c0-.14.11-.25.25-.25.13,0,.25.11.25.24h0c.02.31,1.48.89,4.14.89s4.12-.57,4.14-.88v-.02c0-.14.11-.23.25-.24.14,0,.25.11.25.25,0,.01,0,.02,0,.03l-.13,3.96c0,.94-2.35,1.38-4.54,1.38ZM178.15,204.29l.07,3.3c0,.31,1.42.89,4.04.89s4.04-.59,4.04-.89l.11-3.3c-.83.48-2.52.7-4.12.7s-3.3-.22-4.13-.7Z"/>
    </g>
  </g>
  <g>
    <path class="cls-28" d="M158.42,304.67c0,.86-.41,1.69-1.16,2.49-.81.86-2.06,1.67-3.66,2.42-1.97.92-4.5,1.74-7.44,2.42-5.61,1.29-12.73,2.06-20.51,2.06s-15.15-.79-20.81-2.14c-2.91-.69-5.4-1.5-7.35-2.44-1.54-.73-2.74-1.54-3.54-2.42-.71-.75-1.07-1.54-1.07-2.38,0-5.19,14.66-9.39,32.77-9.39s32.77,4.2,32.77,9.39Z"/>
    <path class="cls-21" d="M125.65,314.31c-7.65,0-15.06-.76-20.87-2.15-2.99-.71-5.48-1.53-7.4-2.46-1.59-.75-2.81-1.58-3.61-2.48-.75-.8-1.14-1.66-1.14-2.55,0-5.4,14.5-9.64,33.02-9.64s33.02,4.23,33.02,9.64c0,.9-.41,1.8-1.23,2.66-.83.87-2.09,1.7-3.74,2.48-1.96.92-4.48,1.74-7.49,2.44-5.9,1.35-13.01,2.06-20.57,2.06ZM125.65,295.53c-17.93,0-32.52,4.1-32.52,9.14,0,.76.34,1.5,1,2.21.77.85,1.93,1.64,3.46,2.37,1.89.91,4.34,1.73,7.3,2.43,5.77,1.38,13.14,2.14,20.75,2.14s14.59-.71,20.45-2.05c2.97-.69,5.46-1.5,7.39-2.4,1.6-.75,2.8-1.54,3.59-2.37.72-.76,1.09-1.54,1.09-2.31,0-5.04-14.59-9.14-32.52-9.14Z"/>
  </g>
  <g>
    <path class="cls-10" d="M158.01,324.37l-.09,4.59c0,5.16-14.68,9.37-32.77,9.37s-32.79-4.2-32.79-9.37l.11-4.86c0,.84.36,1.63,1.07,2.38.81.9,2.06,1.74,3.66,2.49,5.76,2.72,16.16,4.52,28.03,4.52s22.29-1.8,28.05-4.52c1.54-.73,2.76-1.52,3.56-2.38.69-.71,1.09-1.44,1.16-2.21Z"/>
    <path class="cls-21" d="M125.16,338.57c-18.53,0-33.04-4.22-33.04-9.62l.11-4.87c0-.14.11-.24.25-.24h0c.14,0,.25.11.25.25,0,.76.34,1.5,1,2.21.79.87,1.99,1.69,3.59,2.43,5.97,2.82,16.41,4.5,27.93,4.5s21.98-1.68,27.95-4.5c1.57-.74,2.74-1.52,3.48-2.32.68-.7,1.03-1.37,1.09-2.06.01-.13.14-.23.26-.23.13,0,.24.12.24.25l-.08,4.59c0,5.39-14.5,9.61-33.02,9.61ZM92.69,325.74l-.07,3.21c0,5.02,14.6,9.11,32.54,9.11s32.52-4.09,32.52-9.12l.06-3.08c-.18.29-.42.58-.7.87-.78.84-2,1.66-3.63,2.43-6.03,2.85-16.55,4.55-28.16,4.55s-22.11-1.7-28.14-4.55c-1.65-.77-2.92-1.63-3.74-2.54-.27-.29-.5-.59-.67-.89Z"/>
  </g>
  <g>
    <path class="cls-10" d="M158.42,304.67l-.09,4.74-.02.32c-.04.79-.43,1.54-1.14,2.29-.81.84-2.08,1.67-3.69,2.4-1.99.94-4.48,1.74-7.39,2.42h-.04c-5.61,1.29-12.75,2.06-20.51,2.06s-15.11-.79-20.77-2.14h-.02c-2.91-.66-5.38-1.48-7.33-2.42-1.56-.75-2.79-1.56-3.58-2.42-.69-.75-1.05-1.52-1.07-2.34v-.11l.11-4.8c0,.84.36,1.63,1.07,2.38.79.88,1.99,1.69,3.54,2.42,1.95.94,4.44,1.76,7.35,2.44,5.66,1.35,12.9,2.14,20.81,2.14s14.89-.77,20.51-2.06c2.94-.69,5.46-1.5,7.44-2.42,1.61-.75,2.85-1.56,3.66-2.42.75-.79,1.16-1.63,1.16-2.49Z"/>
    <path class="cls-21" d="M125.54,319.15c-7.73,0-14.93-.74-20.82-2.15-2.95-.67-5.43-1.49-7.4-2.44-1.62-.78-2.85-1.61-3.65-2.48-.74-.81-1.12-1.63-1.14-2.5v-.11l.11-4.81c0-.14.11-.24.25-.24h0c.14,0,.25.11.25.25,0,.76.34,1.5,1,2.21.77.85,1.93,1.64,3.46,2.37,1.89.91,4.34,1.73,7.3,2.43,5.77,1.38,13.14,2.14,20.75,2.14s14.59-.71,20.45-2.05c2.97-.69,5.46-1.5,7.39-2.4,1.6-.75,2.8-1.54,3.59-2.37.69-.73,1.06-1.48,1.09-2.22v-.1c0-.14.12-.25.25-.25h0c.14,0,.25.11.25.25,0,.04,0,.07,0,.11l-.11,4.97c-.04.83-.44,1.64-1.2,2.45-.86.88-2.16,1.73-3.76,2.46-1.94.92-4.38,1.72-7.44,2.44-.02,0-.08,0-.1,0-5.75,1.32-13.06,2.06-20.51,2.06ZM93.1,306.33l-.07,3.25c.02.74.35,1.45,1.01,2.17.76.82,1.93,1.61,3.5,2.37,1.94.94,4.38,1.74,7.28,2.4,5.88,1.4,13.04,2.14,20.73,2.14s14.68-.73,20.45-2.05c.02,0,.08,0,.1,0,2.97-.71,5.37-1.49,7.29-2.4,1.55-.7,2.8-1.52,3.61-2.35.68-.72,1.03-1.42,1.06-2.13l.02-.32.05-2.96c-.18.3-.42.6-.69.89-.83.87-2.09,1.7-3.74,2.48-1.96.92-4.48,1.74-7.49,2.44-5.9,1.35-13.01,2.06-20.57,2.06s-15.06-.76-20.87-2.15c-2.99-.71-5.48-1.53-7.4-2.46-1.59-.75-2.81-1.58-3.61-2.48-.27-.29-.5-.59-.67-.89Z"/>
  </g>
  <g>
    <path class="cls-10" d="M158.31,309.73l-.09,4.61v.11c-.02.84-.43,1.65-1.18,2.42-.81.86-2.06,1.67-3.64,2.42-1.99.92-4.48,1.74-7.41,2.42h-.04c-5.61,1.29-12.73,2.06-20.49,2.06s-15.13-.79-20.79-2.14h-.02c-2.91-.66-5.4-1.5-7.35-2.44-1.56-.73-2.76-1.54-3.56-2.42-.69-.73-1.05-1.5-1.07-2.29l.02-.21.09-4.67c.02.81.39,1.59,1.07,2.34.79.86,2.01,1.67,3.58,2.42,1.95.94,4.41,1.76,7.33,2.42h.02c5.66,1.35,12.88,2.14,20.77,2.14s14.89-.77,20.51-2.06h.04c2.91-.69,5.4-1.48,7.39-2.42,1.61-.73,2.87-1.56,3.69-2.4.71-.75,1.09-1.5,1.14-2.29Z"/>
    <path class="cls-21" d="M125.46,324.02c-7.63,0-15.04-.76-20.85-2.15-2.92-.66-5.41-1.49-7.42-2.46-1.6-.74-2.82-1.58-3.63-2.48-.73-.77-1.11-1.6-1.14-2.45l.02-.25.08-4.65c0-.14.11-.24.25-.25.15-.02.25.11.25.24.02.74.35,1.46,1.01,2.17.76.82,1.93,1.61,3.5,2.37,1.94.94,4.38,1.74,7.28,2.4,5.88,1.4,13.04,2.14,20.73,2.14s14.68-.73,20.45-2.05c.02,0,.08,0,.1,0,2.97-.71,5.37-1.49,7.29-2.4,1.55-.7,2.8-1.52,3.61-2.35.68-.72,1.03-1.42,1.06-2.13,0-.14.13-.25.26-.24.14,0,.24.12.24.25l-.08,4.71c-.02.9-.44,1.77-1.25,2.6-.82.86-2.07,1.7-3.72,2.47-2.02.93-4.53,1.75-7.46,2.44-.02,0-.08,0-.1,0-5.84,1.34-12.94,2.06-20.49,2.06ZM93,311.19l-.08,3.3c.02.69.36,1.41,1.01,2.1.77.85,1.94,1.65,3.48,2.37,1.98.96,4.43,1.77,7.3,2.43,5.8,1.38,13.16,2.14,20.75,2.14s14.57-.71,20.43-2.05c.02,0,.08,0,.1,0,2.85-.67,5.32-1.48,7.31-2.4,1.59-.75,2.79-1.55,3.57-2.37.72-.74,1.09-1.5,1.11-2.26v-.1l.06-3c-.18.29-.4.57-.67.86-.86.88-2.16,1.73-3.76,2.46-1.94.92-4.38,1.72-7.44,2.44-.02,0-.08,0-.1,0-5.75,1.32-13.06,2.06-20.51,2.06s-14.93-.74-20.82-2.15c-2.95-.67-5.43-1.49-7.4-2.44-1.62-.78-2.85-1.61-3.65-2.48-.27-.3-.49-.59-.67-.9Z"/>
  </g>
  <g>
    <path class="cls-10" d="M158.23,314.44l-.11,4.8c0,.86-.41,1.67-1.16,2.44v.02c-.81.88-2.06,1.69-3.66,2.44-5.76,2.66-16.12,4.46-27.95,4.46s-22.44-1.84-28.16-4.56c-1.56-.75-2.76-1.56-3.56-2.44-.69-.75-1.05-1.54-1.05-2.36l.09-4.78c.02.79.39,1.56,1.07,2.29.79.88,1.99,1.69,3.56,2.42,1.95.94,4.44,1.78,7.35,2.44h.02c5.66,1.35,12.9,2.14,20.79,2.14s14.87-.77,20.49-2.06h.04c2.94-.69,5.42-1.5,7.41-2.42,1.59-.75,2.83-1.56,3.64-2.42.75-.77,1.16-1.59,1.18-2.42Z"/>
    <path class="cls-21" d="M125.35,328.86c-11.49,0-22.32-1.76-28.27-4.59-1.61-.77-2.84-1.61-3.64-2.5-.74-.81-1.11-1.66-1.11-2.52l.09-4.78c0-.14.11-.24.25-.25h0c.14,0,.25.11.25.24.02.73.36,1.44,1,2.13.77.85,1.94,1.65,3.48,2.37,1.98.96,4.43,1.77,7.3,2.43,5.8,1.38,13.16,2.14,20.75,2.14s14.57-.71,20.43-2.05c.02,0,.08,0,.1,0,2.85-.67,5.32-1.48,7.31-2.4,1.59-.75,2.79-1.55,3.57-2.37.72-.74,1.09-1.5,1.11-2.26,0-.14.11-.26.26-.24.14,0,.25.12.24.26l-.11,4.8c0,.88-.4,1.74-1.18,2.57-.01.02-.02.04-.04.06-.82.88-2.08,1.72-3.74,2.5-6.09,2.81-16.57,4.48-28.05,4.48ZM92.89,316.05l-.06,3.2c0,.73.33,1.47.98,2.18.76.84,1.93,1.64,3.48,2.39,5.89,2.8,16.64,4.54,28.05,4.54s21.82-1.66,27.84-4.43c1.58-.74,2.77-1.53,3.55-2.34.01-.03.03-.05.04-.07.72-.74,1.09-1.51,1.09-2.27l.07-3.1c-.19.3-.43.6-.71.9-.82.86-2.07,1.7-3.72,2.47-2.02.93-4.53,1.75-7.46,2.44-.02,0-.08,0-.1,0-5.84,1.34-12.94,2.06-20.49,2.06s-15.04-.76-20.85-2.15c-2.92-.66-5.41-1.49-7.42-2.46-1.6-.74-2.82-1.58-3.63-2.48-.27-.29-.49-.58-.66-.88Z"/>
  </g>
  <g>
    <path class="cls-10" d="M158.12,319.24l-.09,4.76-.02.21v.15c-.06.77-.47,1.5-1.16,2.21-.79.86-2.01,1.65-3.56,2.38-5.76,2.72-16.16,4.52-28.05,4.52s-22.27-1.8-28.03-4.52c-1.61-.75-2.85-1.59-3.66-2.49-.71-.75-1.07-1.54-1.07-2.38l.11-4.84c0,.81.36,1.61,1.05,2.36.79.88,1.99,1.69,3.56,2.44,5.72,2.72,16.18,4.56,28.16,4.56s22.18-1.8,27.95-4.46c1.61-.75,2.85-1.56,3.66-2.44v-.02c.75-.77,1.16-1.59,1.16-2.44Z"/>
    <path class="cls-21" d="M125.24,333.72c-11.59,0-22.11-1.7-28.14-4.55-1.65-.77-2.92-1.63-3.74-2.54-.75-.8-1.14-1.66-1.14-2.55l.11-4.85c0-.14.11-.24.25-.24h0c.14,0,.25.11.25.25,0,.74.33,1.47.98,2.19.76.84,1.93,1.64,3.48,2.39,5.89,2.8,16.64,4.54,28.05,4.54s21.82-1.66,27.84-4.43c1.58-.74,2.77-1.53,3.55-2.34.01-.03.03-.05.04-.07.69-.71,1.06-1.45,1.08-2.18v-.09c0-.14.12-.25.25-.25h0c.14,0,.25.11.25.25,0,.03,0,.07,0,.1l-.11,4.89v.12c-.07.83-.47,1.6-1.23,2.38-.78.84-2,1.66-3.63,2.43-6.03,2.85-16.55,4.55-28.16,4.55ZM92.8,320.89l-.07,3.2c0,.75.34,1.5,1,2.2.79.87,1.99,1.69,3.59,2.43,5.97,2.82,16.41,4.5,27.93,4.5s21.98-1.68,27.95-4.5c1.57-.74,2.74-1.52,3.48-2.32.68-.7,1.03-1.37,1.09-2.06v-.13s.02-.24.02-.24l.05-2.99c-.17.28-.39.56-.65.83-.01.02-.02.04-.04.06-.82.88-2.08,1.72-3.74,2.5-6.09,2.81-16.57,4.48-28.05,4.48s-22.32-1.76-28.27-4.59c-1.61-.77-2.84-1.61-3.64-2.5-.26-.29-.48-.58-.65-.88Z"/>
  </g>
  <g>
    <path class="cls-31" d="M151.63,254.65v3.92c0,3.21-12.02,5.81-26.85,5.81s-26.85-2.59-26.85-5.81v-3.92c0,.69.56,1.35,1.59,1.97,1.2.73,3.04,1.39,5.38,1.95,4.93,1.16,12,1.89,19.89,1.89s14.96-.73,19.89-1.89c2.34-.56,4.18-1.22,5.38-1.95,1.03-.62,1.59-1.29,1.59-1.97Z"/>
    <path class="cls-21" d="M124.77,264.63c-13.32,0-27.1-2.27-27.1-6.06v-3.92c0-.14.11-.25.25-.25s.25.11.25.25c0,.58.49,1.17,1.47,1.76,1.16.71,3,1.37,5.31,1.92,5.09,1.19,12.31,1.88,19.83,1.88s14.74-.68,19.83-1.88c2.31-.55,4.15-1.22,5.31-1.92.97-.59,1.47-1.18,1.47-1.76,0-.14.11-.25.25-.25s.25.11.25.25v3.92c0,3.79-13.78,6.06-27.1,6.06ZM98.17,255.86v2.71c0,2.68,10.69,5.56,26.6,5.56s26.6-2.87,26.6-5.56v-2.71c-.28.33-.69.66-1.21.97-1.22.74-3.06,1.41-5.45,1.98-5.12,1.2-12.39,1.89-19.95,1.89s-14.82-.69-19.94-1.89c-2.4-.57-4.23-1.24-5.45-1.98-.52-.31-.92-.64-1.21-.97Z"/>
  </g>
  <g>
    <g>
      <path class="cls-33" d="M150.59,295.78v8.59c0,3.6-11.38,6.51-25.44,6.51s-25.44-2.91-25.44-6.51v-8.59c0,1.65,2.42,3.15,6.39,4.29,4.65,1.35,11.47,2.21,19.05,2.21s14.4-.86,19.05-2.21c3.96-1.14,6.39-2.64,6.39-4.29Z"/>
      <path class="cls-21" d="M125.15,311.13c-14.4,0-25.69-2.97-25.69-6.76v-8.59c0-.14.11-.25.25-.25s.25.11.25.25c0,1.44,2.26,2.92,6.21,4.05,4.81,1.4,11.73,2.2,18.98,2.2s14.17-.8,18.98-2.2c3.94-1.13,6.21-2.6,6.21-4.05,0-.14.11-.25.25-.25s.25.11.25.25v8.59c0,3.79-11.28,6.76-25.69,6.76ZM99.96,297.15v7.22c0,3.4,11.53,6.26,25.19,6.26s25.19-2.87,25.19-6.26v-7.22c-1.09,1.45-3.75,2.49-6.07,3.15-4.85,1.41-11.82,2.22-19.12,2.22s-14.27-.81-19.12-2.22c-2.32-.66-4.98-1.7-6.07-3.15Z"/>
    </g>
    <g>
      <path class="cls-33" d="M150.59,295.78c0,1.65-2.42,3.15-6.39,4.29-4.65,1.35-11.47,2.21-19.05,2.21s-14.4-.86-19.05-2.21c-3.96-1.14-6.39-2.64-6.39-4.29,0-3.6,11.38-6.51,25.44-6.51s25.44,2.91,25.44,6.51Z"/>
      <path class="cls-21" d="M125.15,302.52c-7.3,0-14.27-.81-19.12-2.22-3-.86-6.57-2.34-6.57-4.53,0-3.79,11.28-6.77,25.69-6.77s25.69,2.97,25.69,6.77c0,2.19-3.57,3.67-6.57,4.53-4.85,1.41-11.82,2.22-19.12,2.22ZM125.15,289.51c-13.65,0-25.19,2.87-25.19,6.27,0,1.44,2.26,2.92,6.21,4.05,4.81,1.4,11.73,2.2,18.98,2.2s14.17-.8,18.98-2.2c3.94-1.13,6.21-2.6,6.21-4.05,0-3.4-11.53-6.27-25.19-6.27Z"/>
    </g>
  </g>
  <g>
    <ellipse class="cls-21" cx="125.15" cy="295.71" rx="19.16" ry="3.07"/>
    <path class="cls-21" d="M125.15,299.03c-9.41,0-19.41-1.16-19.41-3.32s10-3.32,19.41-3.32,19.41,1.16,19.41,3.32-10,3.32-19.41,3.32ZM125.15,292.88c-11.14,0-18.91,1.49-18.91,2.82s7.77,2.82,18.91,2.82,18.91-1.49,18.91-2.82-7.77-2.82-18.91-2.82Z"/>
  </g>
  <path class="cls-36" d="M169.62,321.78c-.14,0-.25-.11-.25-.25v-72.68c0-.14.11-.25.25-.25s.25.11.25.25v72.68c0,.14-.11.25-.25.25Z"/>
  <g>
    <line class="cls-37" x1="15.63" y1="346.09" x2="129.8" y2="377.86"/>
    <path class="cls-36" d="M129.8,378.11s-.04,0-.07,0l-114.17-31.77c-.13-.04-.21-.17-.17-.31.04-.13.18-.21.31-.17l114.17,31.77c.13.04.21.17.17.31-.03.11-.13.18-.24.18Z"/>
  </g>
  <g>
    <line class="cls-37" x1="143.4" y1="377.86" x2="282.57" y2="340.44"/>
    <path class="cls-36" d="M143.4,378.11c-.11,0-.21-.07-.24-.19-.04-.13.04-.27.18-.31l139.17-37.42c.13-.04.27.04.31.18.04.13-.04.27-.18.31l-139.17,37.42s-.04,0-.06,0Z"/>
  </g>
  <g>
    <line class="cls-37" x1="251.28" y1="314.54" x2="129.8" y2="345.6"/>
    <path class="cls-36" d="M129.8,346.61c-.45,0-.85-.3-.97-.75-.14-.54.19-1.08.72-1.22l121.48-31.06c.54-.14,1.08.19,1.22.72s-.19,1.08-.72,1.22l-121.48,31.06c-.08.02-.17.03-.25.03Z"/>
  </g>
  <g>
    <line class="cls-37" x1="115.37" y1="344.68" x2="78.66" y2="334.79"/>
    <path class="cls-36" d="M115.37,345.68c-.09,0-.17-.01-.26-.03l-36.71-9.88c-.53-.14-.85-.69-.71-1.23.14-.53.69-.85,1.23-.71l36.71,9.88c.53.14.85.69.71,1.23-.12.45-.52.74-.97.74Z"/>
  </g>
  <g>
    <polyline class="cls-12" points="258.95 380.2 228.24 389.58 258.19 373.77 258.95 380.58"/>
    <path class="cls-21" d="M228.24,389.71s-.1-.03-.12-.08c-.03-.06,0-.13.06-.16l29.95-15.81s.08-.02.12,0c.04.02.06.06.07.1l.71,6.34s.04.04.05.07c.01.04,0,.09-.03.12l.03.28c0,.07-.04.13-.11.14-.07.01-.13-.04-.14-.11l-.02-.22-30.52,9.32s-.02,0-.04,0ZM258.09,373.97l-28.62,15.11,29.31-8.95-.68-6.16Z"/>
  </g>
  <path class="cls-21" d="M169.51,425.91c-.07,0-.12-.06-.12-.12v-14.89c0-.07.06-.12.12-.12s.12.06.12.12v14.89c0,.07-.06.12-.12.12Z"/>
  <path class="cls-21" d="M204.79,414.55c-.07,0-.12-.06-.12-.12v-14.44c0-.07.06-.12.12-.12s.12.06.12.12v14.44c0,.07-.06.12-.12.12Z"/>
  <g>
    <polygon class="cls-21" points="254.74 392.75 233.47 399.35 234.82 392.31 256.42 385.62 254.74 392.75"/>
    <path class="cls-21" d="M233.48,399.47s-.06-.01-.08-.03c-.03-.03-.05-.07-.04-.12l1.34-7.03s.04-.08.09-.1l21.6-6.69s.09,0,.12.03.05.08.04.12l-1.67,7.13s-.04.08-.08.09l-21.27,6.59s-.02,0-.04,0ZM234.92,392.41l-1.29,6.75,21-6.51,1.61-6.85-21.32,6.61ZM254.74,392.75h0,0Z"/>
  </g>
  <path class="cls-21" d="M229.32,406.59c-.07,0-.12-.06-.12-.12v-14.09c0-.07.06-.12.12-.12s.12.06.12.12v14.09c0,.07-.06.12-.12.12Z"/>
  <path class="cls-21" d="M261.73,396.03c-.07,0-.12-.06-.12-.12v-13.62c0-.07.06-.12.12-.12s.12.06.12.12v13.62c0,.07-.06.12-.12.12Z"/>
  <path class="cls-29" d="M250.63,389.35c3.69.76,6.16,2,6.09,3.27-.1,1.85-5.52,3.07-12.11,2.72-3.38-.18-6.42-.73-8.55-1.48"/>
  <polygon class="cls-3" points="86.83 358.58 65.44 352.54 57.65 355.47 79.04 361.51 86.83 358.58"/>
  <g>
    <line class="cls-1" x1="68.83" y1="31.56" x2="281.44" y2="32.61"/>
    <path class="cls-22" d="M280.82,43.89c6.23.03,11.3-5,11.33-11.22.03-6.23-5-11.3-11.22-11.33-6.23-.03-11.3,5-11.33,11.22-.03,6.23,5,11.3,11.22,11.33Z"/>
  </g>
  <g>
    <line class="cls-1" x1="134.72" y1="128.44" x2="347.33" y2="129.49"/>
    <path class="cls-22" d="M346.71,140.76c6.23.03,11.3-5,11.33-11.22.03-6.23-5-11.3-11.22-11.33-6.23-.03-11.3,5-11.33,11.22-.03,6.23,5,11.3,11.22,11.33Z"/>
  </g>
  <g>
    <line class="cls-1" x1="186.92" y1="218.68" x2="330.49" y2="218.68"/>
    <path class="cls-22" d="M329.92,229.96c6.23,0,11.28-5.05,11.28-11.28s-5.05-11.28-11.28-11.28-11.28,5.05-11.28,11.28,5.05,11.28,11.28,11.28Z"/>
  </g>
  <g>
    <line class="cls-1" x1="139.25" y1="326.51" x2="388.27" y2="326.51"/>
    <path class="cls-22" d="M387.7,337.79c6.23,0,11.28-5.05,11.28-11.28s-5.05-11.28-11.28-11.28-11.28,5.05-11.28,11.28,5.05,11.28,11.28,11.28Z"/>
  </g>
  <g>
    <line class="cls-1" x1="266.49" y1="240.54" x2="404.77" y2="240.54"/>
    <path class="cls-22" d="M404.21,251.82c6.23,0,11.28-5.05,11.28-11.28s-5.05-11.28-11.28-11.28-11.28,5.05-11.28,11.28,5.05,11.28,11.28,11.28Z"/>
  </g>
  <g>
    <line class="cls-1" x1="279" y1="266.56" x2="360.75" y2="266.56"/>
    <circle class="cls-22" cx="360.19" cy="266.56" r="11.28" transform="translate(-84.07 208.02) rotate(-29)"/>
  </g>
  <text class="cls-38" transform="translate(299.11 40.11)"><tspan x="0" y="0">A</tspan></text>
  <text class="cls-38" transform="translate(371.47 136.62)"><tspan x="0" y="0">B</tspan></text>
  <text class="cls-38" transform="translate(352.2 224.65)"><tspan x="0" y="0">C</tspan></text>
  <text class="cls-38" transform="translate(421.12 248.73)"><tspan x="0" y="0">D</tspan></text>
  <text class="cls-38" transform="translate(381.1 278.52)"><tspan x="0" y="0">E</tspan></text>
  <text class="cls-38" transform="translate(414.82 336.37)"><tspan x="0" y="0">F</tspan></text>
</svg>